<svg width="24" height="24" viewBox="0 0 24 24" fill="none" xmlns="http://www.w3.org/2000/svg">
<path d="M1.42753 13.9088L1.42734 13.9083L0.991861 12.7051L0.991819 12.705C0.777583 12.1116 0.807017 11.4576 1.07369 10.8859L1.07371 10.8858C1.34059 10.3141 1.82286 9.87139 2.41528 9.65442L2.41561 9.6543C5.45864 8.54781 7.25184 7.58968 8.63022 6.49152C9.88584 5.49118 10.8026 4.37116 12.0108 2.89515C12.1313 2.74797 12.2547 2.59725 12.3815 2.44276C12.3815 2.44276 12.3815 2.44276 12.3815 2.44275L12.4975 2.53796C12.599 2.41428 12.736 2.32495 12.8902 2.2822L1.42753 13.9088ZM1.42753 13.9088C1.61643 14.4246 1.97748 14.8593 2.44955 15.1398L2.52617 15.0109L2.44956 15.1398C2.89321 15.4034 3.40962 15.5155 3.92104 15.4612L4.28453 16.0445L4.28452 16.0445L4.28551 16.0461C4.91214 17.0248 5.6495 18.4651 6.26364 19.6648C6.40026 19.9316 6.53078 20.1866 6.65262 20.4219L6.65303 20.4226C7.12295 21.3174 8.05295 21.7966 8.96983 21.476L8.9709 21.4757C9.53893 21.2722 9.89874 20.7984 10.0477 20.2612C10.1962 19.7254 10.1394 19.1142 9.86408 18.6116L9.86411 18.6116L9.86265 18.6091C9.65249 18.2426 9.46627 17.95 9.29883 17.6868C9.28126 17.6592 9.26389 17.6319 9.24673 17.6049C9.06565 17.3199 8.90765 17.0665 8.76028 16.7782C8.47701 16.2241 8.22833 15.5321 7.94965 14.2433C11.2602 13.4062 13.2716 13.7883 16.2155 14.3477C16.3894 14.3807 16.5665 14.4144 16.7474 14.4484C16.9351 14.4849 17.1298 14.4621 17.3041 14.3836C17.5394 14.2911 17.6961 14.1463 17.7791 13.9569C17.8602 13.7719 17.8625 13.5633 17.8294 13.3569C17.7764 13.0269 17.6224 12.6521 17.4799 12.3052C17.4476 12.2265 17.4158 12.1492 17.386 12.0742L16.5214 9.69817L1.42753 13.9088ZM6.64823 8.84227C5.59612 9.38601 4.32703 9.92832 2.72883 10.5101C2.72877 10.5102 2.7287 10.5102 2.72864 10.5102L2.67733 10.3693L2.72886 10.5101L6.64823 8.84227ZM6.64823 8.84227L8.24774 13.2297C7.0662 13.4888 5.62145 13.9531 4.0272 14.517C3.67617 14.6046 3.30473 14.5599 2.98439 14.3912C2.66216 14.2213 2.4143 13.9378 2.28876 13.5959C2.28874 13.5958 2.28872 13.5957 2.28869 13.5957L1.85102 12.3931C1.85101 12.3931 1.85101 12.3931 1.851 12.393C1.7184 12.0269 1.73629 11.6232 1.90073 11.2701L6.64823 8.84227ZM13.464 2.13236C13.2865 2.06175 13.0823 2.06538 12.8478 2.13832L16.5214 9.69806C16.2663 8.99557 16.1126 8.57165 16.0031 8.26974C15.7325 7.52351 15.7322 7.52266 15.1404 5.90295C15.1404 5.90292 15.1404 5.90289 15.1404 5.90286L14.3381 3.6981L14.3381 3.69808C14.2911 3.56889 14.2509 3.44899 14.2113 3.33101C14.1801 3.2378 14.1492 3.14579 14.1157 3.05134C14.044 2.84898 13.9666 2.65582 13.8681 2.4976C13.7688 2.33821 13.6411 2.20282 13.464 2.13236ZM8.56214 18.2321L8.56223 18.2323C8.72318 18.4813 8.88777 18.7387 9.05842 19.0403C9.23766 19.3927 9.26297 19.7982 9.13534 20.1242C8.97843 20.524 8.66542 20.679 8.34582 20.6521C8.01737 20.6245 7.66552 20.4017 7.46524 20.0036L7.46468 20.0025C7.38362 19.8446 7.30032 19.6818 7.21508 19.5151C6.50444 18.1258 5.65855 16.4721 4.84087 15.2035C5.65409 14.9141 6.38977 14.6754 7.06508 14.4814C7.2873 15.5187 7.51654 16.2327 7.75916 16.7934C8.01388 17.382 8.28151 17.797 8.5614 18.231L8.56214 18.2321ZM12.7126 3.48155L12.7129 3.48118C12.8344 3.33202 12.9593 3.17969 13.0874 3.0239L13.0874 3.02393L13.0895 3.02128C13.0925 3.01743 13.0975 3.01545 13.1027 3.01647L13.1027 3.01659L13.1087 3.01753C13.114 3.01834 13.1187 3.022 13.1207 3.02766L13.1206 3.02766L13.1212 3.02911L16.9407 13.5232L16.9407 13.5232L16.9413 13.5246C16.9435 13.5304 16.9425 13.5372 16.9379 13.5427C16.9336 13.5478 16.9269 13.5501 16.9204 13.5488L16.9186 13.5484C16.7486 13.5164 16.5812 13.4845 16.4161 13.4531C13.8398 12.9629 11.8086 12.5764 9.15212 13.0517L7.4595 8.40003C9.80013 7.03583 10.977 5.59958 12.7079 3.48738L12.7126 3.48155Z" fill="#565BBD" stroke="#565BBD" stroke-width="0.3"/>
<path d="M19.5772 6.62472C19.6049 6.70127 19.6621 6.76356 19.7357 6.79809C19.8095 6.83243 19.8939 6.83627 19.9705 6.80832L22.4166 5.91773C22.5759 5.85982 22.6581 5.68372 22.6002 5.52441C22.5423 5.36511 22.3662 5.2829 22.2069 5.34082L19.7604 6.2314H19.7602C19.6011 6.28949 19.5193 6.4656 19.5772 6.62472L19.5772 6.62472Z" fill="#565BBD"/>
<path d="M18.0864 4.53736C18.2161 4.64624 18.4098 4.62925 18.5186 4.49955L20.1924 2.50465H20.1922C20.3013 2.37458 20.2845 2.18094 20.1544 2.07187C20.0245 1.96281 19.8307 1.9798 19.7216 2.10969L18.0484 4.10458H18.0486C17.9962 4.16706 17.9706 4.24763 17.9777 4.32892C17.9849 4.41003 18.024 4.48511 18.0864 4.53736H18.0864Z" fill="#565BBD"/>
<path d="M19.8254 9.18196C19.8106 9.26253 19.8285 9.34564 19.8753 9.41287C19.922 9.48028 19.9938 9.52595 20.0746 9.54002L22.6383 9.99217H22.6381C22.8055 10.0218 22.965 9.91014 22.9944 9.7428C23.024 9.57565 22.9124 9.41616 22.745 9.38657L20.1809 8.93443C20.0144 8.90501 19.8555 9.01554 19.8254 9.18196L19.8254 9.18196Z" fill="#565BBD"/>
</svg>
