<svg width="175" height="28" viewBox="0 0 175 28" fill="none" xmlns="http://www.w3.org/2000/svg">
<path d="M0.741211 19.334C0.741211 19.291 0.755534 19.248 0.78418 19.2051C0.812826 19.1549 0.845052 19.1084 0.880859 19.0654C0.923828 19.0225 0.963216 18.9831 0.999023 18.9473C1.04199 18.9115 1.07422 18.8828 1.0957 18.8613H1.375C1.53255 18.8613 1.68652 18.8577 1.83691 18.8506C1.99447 18.8363 2.14128 18.8112 2.27734 18.7754C2.42057 18.7396 2.55306 18.6787 2.6748 18.5928C2.80371 18.5068 2.92188 18.3887 3.0293 18.2383L3.3623 17.8301C3.39811 17.7943 3.4196 17.762 3.42676 17.7334C3.43392 17.6976 3.4375 17.6403 3.4375 17.5615L3.3623 16.1543C3.3623 15.9251 3.39811 15.7067 3.46973 15.499C3.5485 15.2913 3.58789 15.0872 3.58789 14.8867C3.58789 14.6647 3.5485 14.4355 3.46973 14.1992C3.39811 13.9629 3.3623 13.723 3.3623 13.4795C3.3623 13.4222 3.36947 13.3757 3.38379 13.3398C3.40527 13.2969 3.42318 13.2575 3.4375 13.2217C3.45898 13.1787 3.47689 13.1357 3.49121 13.0928C3.5127 13.0498 3.52344 12.9997 3.52344 12.9424L3.41602 12.1797L3.52344 11.1592V10.7402L3.3623 10.4502C3.34798 10.2712 3.33008 10.0993 3.30859 9.93457C3.29427 9.79134 3.27995 9.64811 3.26562 9.50488C3.2513 9.36165 3.24056 9.24349 3.2334 9.15039L3.38379 8.64551C3.38379 8.54525 3.3623 8.38053 3.31934 8.15137C3.27637 7.9222 3.21908 7.68587 3.14746 7.44238C3.07585 7.19889 2.99707 6.97689 2.91113 6.77637C2.83236 6.57585 2.75358 6.4541 2.6748 6.41113C2.55306 6.37533 2.38477 6.3431 2.16992 6.31445C1.95508 6.27865 1.74023 6.22852 1.52539 6.16406C1.31771 6.09245 1.13509 5.99935 0.977539 5.88477C0.819987 5.77018 0.741211 5.61263 0.741211 5.41211C0.741211 5.34766 0.759115 5.31543 0.794922 5.31543C0.909505 5.31543 1.00977 5.30469 1.0957 5.2832C1.18164 5.26172 1.26042 5.23665 1.33203 5.20801C1.41081 5.17936 1.486 5.1543 1.55762 5.13281C1.63639 5.11133 1.72233 5.10059 1.81543 5.10059L2.6748 5.20801L4.4043 5.03613L4.75879 5.1543L5.31738 5.03613C5.52507 5.00749 5.72917 4.98958 5.92969 4.98242C6.13021 4.9681 6.33431 4.96094 6.54199 4.96094C6.73535 4.96094 6.92871 4.9681 7.12207 4.98242C7.31543 4.98958 7.50521 5.00749 7.69141 5.03613C7.8418 5.11491 7.99219 5.16146 8.14258 5.17578C8.30013 5.18294 8.45768 5.18652 8.61523 5.18652C8.78711 5.18652 8.9554 5.19368 9.12012 5.20801C9.28483 5.22233 9.44596 5.2474 9.60352 5.2832C9.73242 5.30469 9.90072 5.36556 10.1084 5.46582C10.3161 5.55892 10.5273 5.6735 10.7422 5.80957C10.9642 5.93848 11.1647 6.08171 11.3438 6.23926C11.5299 6.39681 11.6624 6.5472 11.7412 6.69043C11.8057 6.85514 11.863 7.03418 11.9131 7.22754C11.9704 7.4209 12.0205 7.61784 12.0635 7.81836C12.1064 8.01172 12.1387 8.20866 12.1602 8.40918C12.1888 8.60254 12.2031 8.78516 12.2031 8.95703C12.2031 9.04297 12.1995 9.15755 12.1924 9.30078C12.1924 9.44401 12.1816 9.59082 12.1602 9.74121C12.1458 9.8916 12.1243 10.0312 12.0957 10.1602C12.0671 10.2891 12.0312 10.3857 11.9883 10.4502L11.666 10.8584L11.5908 11.2666C11.555 11.3525 11.4727 11.4707 11.3438 11.6211C11.222 11.7643 11.0824 11.9147 10.9248 12.0723C10.7744 12.2227 10.624 12.3623 10.4736 12.4912C10.3304 12.6201 10.2158 12.7025 10.1299 12.7383C10.0654 12.7741 9.98665 12.8171 9.89355 12.8672C9.80046 12.9102 9.70378 12.9567 9.60352 13.0068C9.50326 13.057 9.40658 13.1035 9.31348 13.1465C9.22754 13.1823 9.15592 13.2074 9.09863 13.2217L8.34668 13.2754L7.87402 13.4258C7.78809 13.4258 7.68424 13.415 7.5625 13.3936C7.44076 13.3649 7.32259 13.3255 7.20801 13.2754C7.10059 13.2253 7.00391 13.1715 6.91797 13.1143C6.83919 13.0498 6.7998 12.9782 6.7998 12.8994C6.7998 12.7848 6.875 12.6989 7.02539 12.6416L8.27148 12.3838C8.27865 12.348 8.30371 12.3193 8.34668 12.2979C8.39681 12.2692 8.43978 12.2477 8.47559 12.2334C8.72624 12.1045 8.95898 11.9362 9.17383 11.7285C9.38867 11.5137 9.57487 11.2773 9.73242 11.0195C9.88997 10.7617 10.0117 10.4896 10.0977 10.2031C10.1908 9.90951 10.2373 9.6123 10.2373 9.31152C10.223 9.25423 10.2015 9.2041 10.1729 9.16113C10.1514 9.111 10.137 9.06803 10.1299 9.03223C10.1299 9.02507 10.1263 9.0179 10.1191 9.01074C10.112 8.99642 10.1084 8.97493 10.1084 8.94629C10.0798 8.74577 10.0475 8.51302 10.0117 8.24805C9.97591 7.97591 9.9222 7.74316 9.85059 7.5498C9.82194 7.47819 9.74316 7.38151 9.61426 7.25977C9.49251 7.13086 9.34928 6.99479 9.18457 6.85156C9.02702 6.70833 8.8623 6.56868 8.69043 6.43262C8.52572 6.28939 8.38607 6.16764 8.27148 6.06738L7.31543 5.8418H6.4668C6.40234 5.8776 6.30924 5.90983 6.1875 5.93848C6.07292 5.96712 5.95833 6.00293 5.84375 6.0459C5.73633 6.08887 5.63965 6.14974 5.55371 6.22852C5.46777 6.30013 5.4248 6.40039 5.4248 6.5293V7.77539C5.47493 7.83984 5.50358 7.88997 5.51074 7.92578C5.5179 7.96159 5.52148 8.02246 5.52148 8.1084L5.4248 8.5166C5.4248 8.53092 5.43913 8.57747 5.46777 8.65625C5.50358 8.72786 5.52148 8.78158 5.52148 8.81738V9L5.32812 9.55859L5.5752 10.8047C5.5752 10.8691 5.57161 10.9229 5.56445 10.9658C5.56445 11.0016 5.55013 11.0589 5.52148 11.1377V12.792C5.55013 12.8564 5.56445 12.9173 5.56445 12.9746C5.57161 13.0247 5.5752 13.082 5.5752 13.1465L5.4248 13.7695C5.4248 14.0345 5.46061 14.2995 5.53223 14.5645C5.60384 14.8223 5.64681 15.0872 5.66113 15.3594C5.66829 15.5599 5.67188 15.7676 5.67188 15.9824C5.67188 16.1901 5.67546 16.4014 5.68262 16.6162C5.68978 16.8239 5.7041 17.0316 5.72559 17.2393C5.74707 17.4398 5.79004 17.6367 5.85449 17.8301C5.86165 17.8802 5.94043 17.959 6.09082 18.0664C6.24837 18.1738 6.42383 18.2848 6.61719 18.3994C6.81055 18.5068 6.99316 18.6035 7.16504 18.6895C7.34408 18.7682 7.45866 18.8076 7.50879 18.8076H7.8418C7.92057 18.8076 7.97786 18.8112 8.01367 18.8184C8.04948 18.8184 8.09245 18.8327 8.14258 18.8613C8.14258 18.8685 8.1569 18.8864 8.18555 18.915C8.22135 18.9437 8.26074 18.9795 8.30371 19.0225C8.34668 19.0583 8.38965 19.0941 8.43262 19.1299C8.48275 19.1657 8.52572 19.1943 8.56152 19.2158C8.57585 19.2516 8.58659 19.2803 8.59375 19.3018C8.60807 19.3232 8.61523 19.3519 8.61523 19.3877V19.4199C8.55078 19.5632 8.45052 19.6742 8.31445 19.7529C8.18555 19.8317 8.04232 19.889 7.88477 19.9248C7.72721 19.9606 7.56608 19.9821 7.40137 19.9893C7.23665 19.9964 7.08626 20 6.9502 20L6.13379 19.8496C6.05501 19.8496 5.97624 19.8675 5.89746 19.9033C5.82585 19.932 5.74707 19.9463 5.66113 19.9463L4.76953 19.6992H4.64062C4.58333 19.6992 4.54753 19.7064 4.5332 19.7207C4.22526 19.7565 3.91732 19.8138 3.60938 19.8926C3.30143 19.9642 2.97201 20 2.62109 20C2.47786 20 2.29883 19.9964 2.08398 19.9893C1.8763 19.9821 1.6722 19.957 1.47168 19.9141C1.27116 19.8711 1.09928 19.8066 0.956055 19.7207C0.812826 19.6276 0.741211 19.4987 0.741211 19.334ZM18.5088 18.5928C18.5016 18.5856 18.4909 18.5641 18.4766 18.5283C18.4622 18.4854 18.4479 18.4424 18.4336 18.3994C18.4193 18.3564 18.4049 18.3171 18.3906 18.2812C18.3835 18.2454 18.3799 18.224 18.3799 18.2168C18.3656 18.1953 18.3584 18.1667 18.3584 18.1309C18.3584 18.0879 18.3584 18.0413 18.3584 17.9912C18.3584 17.9482 18.3584 17.9053 18.3584 17.8623C18.3584 17.8193 18.3656 17.7871 18.3799 17.7656C18.2796 17.6725 18.2188 17.5902 18.1973 17.5186C18.1829 17.4398 18.1758 17.3503 18.1758 17.25V17.0244C18.1758 17.0101 18.1686 16.9886 18.1543 16.96C18.14 16.9313 18.1292 16.9098 18.1221 16.8955C18.1006 16.8812 18.0576 16.8418 17.9932 16.7773C17.9359 16.7129 17.8893 16.6735 17.8535 16.6592C17.7962 16.609 17.7246 16.5768 17.6387 16.5625C17.5527 16.5482 17.4775 16.516 17.4131 16.4658C17.3988 16.4658 17.363 16.4658 17.3057 16.4658C17.2555 16.4658 17.2233 16.4622 17.209 16.4551C17.1589 16.4694 17.098 16.4945 17.0264 16.5303C16.9619 16.5589 16.9225 16.5804 16.9082 16.5947L16.8008 16.6592L16.2744 16.5947H16.0166C15.9235 16.5947 15.8268 16.6126 15.7266 16.6484C15.6263 16.6842 15.526 16.7308 15.4258 16.7881C15.3327 16.8454 15.2432 16.9134 15.1572 16.9922C15.0785 17.0638 15.014 17.139 14.9639 17.2178C14.9495 17.2321 14.9352 17.2751 14.9209 17.3467C14.9066 17.4183 14.8994 17.4613 14.8994 17.4756C14.8851 17.5186 14.8636 17.5651 14.835 17.6152C14.8063 17.6582 14.792 17.7083 14.792 17.7656L14.7705 18.0342L14.6953 18.3135L14.792 18.8076C14.792 18.8219 14.8027 18.8398 14.8242 18.8613C14.8457 18.8828 14.8708 18.9079 14.8994 18.9365C14.9782 19.0153 15.0176 19.0618 15.0176 19.0762C15.0176 19.0833 15.0283 19.0905 15.0498 19.0977C15.0785 19.1048 15.1071 19.112 15.1357 19.1191C15.1644 19.1263 15.193 19.1335 15.2217 19.1406C15.2503 19.1406 15.2682 19.1406 15.2754 19.1406C15.3184 19.1406 15.3757 19.1442 15.4473 19.1514C15.5189 19.1585 15.5869 19.1764 15.6514 19.2051C15.723 19.2337 15.7839 19.2731 15.834 19.3232C15.8841 19.3662 15.9092 19.4307 15.9092 19.5166C15.9092 19.6025 15.877 19.6849 15.8125 19.7637C15.748 19.8424 15.6693 19.8962 15.5762 19.9248C15.5404 19.932 15.4831 19.9427 15.4043 19.957C15.3255 19.9714 15.2396 19.9893 15.1465 20.0107C15.0534 20.0322 14.9639 20.0501 14.8779 20.0645C14.792 20.0859 14.7311 20.1003 14.6953 20.1074L14.4375 20L12.8799 20.1074C12.7868 20.0931 12.7044 20.0788 12.6328 20.0645C12.5684 20.0501 12.5075 20.0286 12.4502 20C12.4001 19.9714 12.3535 19.932 12.3105 19.8818C12.2747 19.8317 12.2354 19.7601 12.1924 19.667C12.1924 19.5381 12.2282 19.4342 12.2998 19.3555C12.3786 19.2695 12.4717 19.1979 12.5791 19.1406C12.6865 19.0833 12.7975 19.0332 12.9121 18.9902C13.0267 18.9401 13.1198 18.8936 13.1914 18.8506C13.1914 18.8363 13.1986 18.8255 13.2129 18.8184C13.2344 18.804 13.2523 18.7897 13.2666 18.7754C13.3311 18.7109 13.3991 18.6357 13.4707 18.5498C13.5495 18.4639 13.6068 18.3708 13.6426 18.2705C13.6497 18.2633 13.6605 18.2419 13.6748 18.2061C13.6891 18.1702 13.7035 18.1309 13.7178 18.0879C13.7321 18.0449 13.7428 18.0055 13.75 17.9697C13.7643 17.9339 13.7715 17.9124 13.7715 17.9053C13.8503 17.6976 13.9434 17.5114 14.0508 17.3467C14.1582 17.1748 14.2513 17.0065 14.3301 16.8418C14.3372 16.8346 14.348 16.8132 14.3623 16.7773C14.3766 16.7415 14.391 16.7021 14.4053 16.6592C14.4196 16.6162 14.4303 16.5768 14.4375 16.541C14.4518 16.5052 14.459 16.4801 14.459 16.4658L14.6416 15.7031C14.6488 15.696 14.6595 15.6781 14.6738 15.6494C14.6882 15.6136 14.7025 15.5778 14.7168 15.542C14.7311 15.5062 14.7419 15.474 14.749 15.4453C14.7633 15.4167 14.7705 15.3988 14.7705 15.3916L14.9639 14.7578C15.0068 14.6003 15.0605 14.4714 15.125 14.3711C15.1966 14.2637 15.2646 14.1383 15.3291 13.9951L15.3828 13.6836C15.3971 13.6549 15.4115 13.6084 15.4258 13.5439C15.4401 13.4723 15.4508 13.4329 15.458 13.4258L15.5762 13.0498C15.5762 13.0212 15.5798 12.9818 15.5869 12.9316C15.6012 12.8815 15.612 12.8278 15.6191 12.7705C15.6263 12.7132 15.6335 12.6595 15.6406 12.6094C15.6478 12.5521 15.6514 12.5127 15.6514 12.4912V11.6748C15.6514 11.6533 15.6585 11.6211 15.6729 11.5781C15.6943 11.5352 15.7158 11.4922 15.7373 11.4492C15.7588 11.3991 15.7839 11.3561 15.8125 11.3203C15.8411 11.2773 15.8734 11.2451 15.9092 11.2236L16.2744 11.0947C16.2959 11.0947 16.3281 11.0697 16.3711 11.0195C16.4212 10.9622 16.4535 10.9264 16.4678 10.9121L16.833 10.7402L17.1123 10.4717C17.234 10.4717 17.3343 10.5218 17.4131 10.6221C17.499 10.7152 17.5671 10.8118 17.6172 10.9121C17.6243 10.9479 17.6387 11.0052 17.6602 11.084C17.6888 11.1628 17.7139 11.2487 17.7354 11.3418C17.764 11.4277 17.7891 11.5101 17.8105 11.5889C17.8392 11.6676 17.8535 11.7214 17.8535 11.75V12.0615C17.8678 12.0758 17.8822 12.0973 17.8965 12.126C17.9108 12.1546 17.9215 12.1761 17.9287 12.1904C18.029 12.3551 18.1149 12.5413 18.1865 12.749C18.2581 12.9495 18.3226 13.1536 18.3799 13.3613C18.3942 13.5046 18.4014 13.5869 18.4014 13.6084C18.4085 13.6299 18.4193 13.6406 18.4336 13.6406C18.498 13.6406 18.5446 13.6729 18.5732 13.7373C18.609 13.7946 18.6449 13.8626 18.6807 13.9414L18.8096 14.2959C18.8096 14.3174 18.8203 14.3532 18.8418 14.4033C18.8633 14.4463 18.8883 14.4964 18.917 14.5537C18.9456 14.611 18.9707 14.6683 18.9922 14.7256C19.0208 14.7757 19.0387 14.8115 19.0459 14.833C19.0531 14.8402 19.0781 14.8724 19.1211 14.9297C19.1426 14.9583 19.1605 14.9834 19.1748 15.0049C19.182 15.0192 19.1963 15.0586 19.2178 15.123C19.2393 15.1803 19.2607 15.2448 19.2822 15.3164C19.3037 15.388 19.3216 15.4561 19.3359 15.5205C19.3574 15.5778 19.3682 15.6136 19.3682 15.6279C19.404 15.7712 19.4434 15.918 19.4863 16.0684C19.5365 16.2116 19.6009 16.3441 19.6797 16.4658C19.6797 16.4873 19.7083 16.5339 19.7656 16.6055C19.8229 16.6699 19.8551 16.7129 19.8623 16.7344L19.9268 17.0244C19.9554 17.1462 19.984 17.2464 20.0127 17.3252C20.0413 17.404 20.0592 17.4827 20.0664 17.5615C20.0664 17.583 20.0736 17.626 20.0879 17.6904C20.1094 17.7549 20.1309 17.8265 20.1523 17.9053C20.1738 17.9769 20.1917 18.0449 20.2061 18.1094C20.2275 18.1667 20.2383 18.2025 20.2383 18.2168C20.2526 18.2956 20.2884 18.3815 20.3457 18.4746C20.403 18.5677 20.4603 18.625 20.5176 18.6465C20.5247 18.6536 20.5498 18.668 20.5928 18.6895C20.6429 18.7109 20.693 18.736 20.7432 18.7646C20.8005 18.7861 20.8506 18.8076 20.8936 18.8291C20.9437 18.8506 20.9723 18.8613 20.9795 18.8613C21.0654 18.9186 21.1442 18.9616 21.2158 18.9902C21.2946 19.0117 21.359 19.0404 21.4092 19.0762C21.4593 19.1048 21.4987 19.1478 21.5273 19.2051C21.556 19.2624 21.5703 19.3483 21.5703 19.4629C21.5703 19.5703 21.513 19.6634 21.3984 19.7422C21.2839 19.8138 21.1478 19.8747 20.9902 19.9248C20.8398 19.9678 20.6859 20 20.5283 20.0215C20.3779 20.043 20.2669 20.0537 20.1953 20.0537C20.0091 20.0537 19.8372 20.0286 19.6797 19.9785C19.5293 19.9284 19.3503 19.9033 19.1426 19.9033L18.3047 20C18.2331 20 18.1436 19.9964 18.0361 19.9893C17.9287 19.9749 17.8213 19.9535 17.7139 19.9248C17.6136 19.889 17.5241 19.8424 17.4453 19.7852C17.3737 19.7279 17.3379 19.6491 17.3379 19.5488C17.3379 19.4128 17.3988 19.3197 17.5205 19.2695C17.6423 19.2122 17.7747 19.1621 17.918 19.1191C18.0684 19.0762 18.2044 19.026 18.3262 18.9688C18.4479 18.9043 18.5088 18.7969 18.5088 18.6465V18.5928ZM16.4678 15.8213C16.4749 15.8213 16.5 15.8285 16.543 15.8428C16.5931 15.8499 16.6468 15.8607 16.7041 15.875C16.7686 15.8893 16.8294 15.9036 16.8867 15.918C16.9512 15.9323 17.0013 15.943 17.0371 15.9502L17.2842 16.0039C17.2913 15.9967 17.32 15.9896 17.3701 15.9824C17.4202 15.9753 17.474 15.9645 17.5312 15.9502L17.7461 15.9072L17.542 15.0908C17.5277 15.0264 17.5133 14.9404 17.499 14.833C17.4919 14.7184 17.4883 14.6432 17.4883 14.6074C17.4883 14.5143 17.4775 14.4355 17.4561 14.3711C17.4417 14.2995 17.4202 14.2314 17.3916 14.167C17.363 14.1025 17.3307 14.0381 17.2949 13.9736C17.2591 13.902 17.2233 13.8232 17.1875 13.7373C17.1732 13.6872 17.123 13.6299 17.0371 13.5654C16.9583 13.501 16.8903 13.4401 16.833 13.3828C16.8115 13.3613 16.7757 13.3506 16.7256 13.3506C16.6611 13.3506 16.5967 13.3757 16.5322 13.4258C16.4678 13.4759 16.3962 13.501 16.3174 13.501C16.2529 13.501 16.1849 13.5547 16.1133 13.6621C16.0488 13.7695 15.9844 13.8949 15.9199 14.0381C15.8626 14.1742 15.8125 14.3138 15.7695 14.457C15.7337 14.5931 15.7122 14.6934 15.7051 14.7578V15.5742C15.7194 15.5957 15.7409 15.6387 15.7695 15.7031C15.7982 15.7676 15.8197 15.807 15.834 15.8213C15.8483 15.8356 15.8626 15.8535 15.877 15.875C15.8913 15.8893 15.9128 15.8965 15.9414 15.8965C15.9557 15.8965 15.988 15.8929 16.0381 15.8857C16.0954 15.8786 16.1527 15.8714 16.21 15.8643C16.2673 15.8499 16.321 15.8392 16.3711 15.832C16.4212 15.8249 16.4535 15.8213 16.4678 15.8213ZM26.4473 19.8711C26.4115 19.8711 26.3685 19.8711 26.3184 19.8711C26.2682 19.8711 26.2181 19.8711 26.168 19.8711C26.125 19.8711 26.0856 19.8747 26.0498 19.8818C26.014 19.8818 25.9925 19.8854 25.9854 19.8926C25.8708 19.8997 25.7526 19.9248 25.6309 19.9678C25.5163 20.0107 25.3981 20.0322 25.2764 20.0322H25.1689C25.1546 20.0322 25.1224 20.0251 25.0723 20.0107C25.0221 19.9964 24.9684 19.9821 24.9111 19.9678C24.8538 19.9463 24.7965 19.9284 24.7393 19.9141C24.682 19.8997 24.639 19.8926 24.6104 19.8926C24.6104 19.8783 24.5781 19.8639 24.5137 19.8496C24.4564 19.8281 24.4206 19.8174 24.4062 19.8174C24.3919 19.8102 24.3633 19.8066 24.3203 19.8066C24.2845 19.7995 24.2415 19.7923 24.1914 19.7852C24.1413 19.778 24.0947 19.7744 24.0518 19.7744C24.016 19.7673 23.998 19.7637 23.998 19.7637C23.9336 19.7279 23.9014 19.6634 23.9014 19.5703C23.9014 19.5417 23.9049 19.5166 23.9121 19.4951C23.9193 19.4736 23.9229 19.4557 23.9229 19.4414C23.9229 19.3197 23.9587 19.2194 24.0303 19.1406C24.109 19.0618 24.2021 19.001 24.3096 18.958C24.417 18.9079 24.5316 18.8685 24.6533 18.8398C24.7751 18.804 24.8789 18.7754 24.9648 18.7539C25.1224 18.7396 25.2298 18.7109 25.2871 18.668C25.3516 18.625 25.3838 18.5068 25.3838 18.3135C25.3838 18.2419 25.373 18.1702 25.3516 18.0986C25.3301 18.027 25.3193 17.9482 25.3193 17.8623C25.3193 17.7262 25.3516 17.5973 25.416 17.4756C25.4876 17.3467 25.5234 17.2106 25.5234 17.0674C25.5234 17.0173 25.5127 16.9743 25.4912 16.9385C25.4697 16.8955 25.4447 16.8561 25.416 16.8203C25.3945 16.7845 25.373 16.7487 25.3516 16.7129C25.3301 16.6699 25.3193 16.6198 25.3193 16.5625C25.3193 16.5052 25.3301 16.4443 25.3516 16.3799C25.373 16.3154 25.3838 16.2474 25.3838 16.1758V16.1543C25.3766 16.14 25.373 16.1328 25.373 16.1328C25.3516 16.054 25.3229 15.9645 25.2871 15.8643C25.2585 15.764 25.2262 15.6602 25.1904 15.5527C25.1546 15.4453 25.1152 15.3415 25.0723 15.2412C25.0365 15.141 25.0007 15.0479 24.9648 14.9619C24.9004 14.8402 24.818 14.7327 24.7178 14.6396C24.6247 14.5465 24.5459 14.4499 24.4814 14.3496C24.3454 14.1419 24.2201 13.9378 24.1055 13.7373C23.9909 13.5296 23.862 13.3363 23.7188 13.1572C23.7044 13.1501 23.6829 13.1322 23.6543 13.1035C23.6257 13.0749 23.597 13.0462 23.5684 13.0176C23.5397 12.9818 23.5111 12.9531 23.4824 12.9316C23.4609 12.903 23.4466 12.8851 23.4395 12.8779C23.4323 12.8636 23.4251 12.835 23.418 12.792C23.4108 12.749 23.4036 12.7061 23.3965 12.6631C23.3965 12.613 23.3929 12.57 23.3857 12.5342C23.3786 12.4912 23.3714 12.4661 23.3643 12.459C23.3356 12.4375 23.307 12.4124 23.2783 12.3838L23.1602 12.2656C23.1387 12.2441 23.0885 12.2048 23.0098 12.1475C22.931 12.083 22.8451 12.015 22.752 11.9434C22.666 11.8646 22.5801 11.793 22.4941 11.7285C22.4154 11.6569 22.3581 11.6032 22.3223 11.5674C22.3079 11.5531 22.265 11.5208 22.1934 11.4707C22.1217 11.4206 22.0716 11.3776 22.043 11.3418C21.957 11.2845 21.8675 11.2415 21.7744 11.2129C21.6885 11.1842 21.6061 11.152 21.5273 11.1162C21.4557 11.0804 21.3949 11.0339 21.3447 10.9766C21.3018 10.9121 21.2803 10.8154 21.2803 10.6865C21.2803 10.6006 21.3053 10.5326 21.3555 10.4824C21.4128 10.4323 21.4808 10.3965 21.5596 10.375C21.6383 10.3535 21.7243 10.3428 21.8174 10.3428C21.9176 10.3356 22.0072 10.332 22.0859 10.332H22.3223C22.3509 10.332 22.3975 10.3356 22.4619 10.3428C22.5264 10.3428 22.5944 10.3464 22.666 10.3535C22.7376 10.3607 22.8021 10.3678 22.8594 10.375C22.9238 10.375 22.9632 10.375 22.9775 10.375C22.9847 10.3893 23.0133 10.4072 23.0635 10.4287C23.1136 10.443 23.1458 10.4502 23.1602 10.4502C23.1673 10.4502 23.1924 10.4466 23.2354 10.4395C23.2855 10.4323 23.3356 10.4251 23.3857 10.418C23.443 10.4108 23.4932 10.4036 23.5361 10.3965C23.5863 10.3893 23.6149 10.3822 23.6221 10.375H23.8262C23.9694 10.375 24.1019 10.4001 24.2236 10.4502C24.3525 10.5003 24.4814 10.5254 24.6104 10.5254L25.1797 10.4502C25.2441 10.4502 25.3122 10.4574 25.3838 10.4717C25.4626 10.4788 25.5306 10.4967 25.5879 10.5254C25.6523 10.554 25.7025 10.5934 25.7383 10.6436C25.7812 10.6937 25.8027 10.7581 25.8027 10.8369C25.8027 10.8799 25.7633 10.9479 25.6846 11.041C25.613 11.1341 25.5342 11.2344 25.4482 11.3418C25.3623 11.4421 25.2799 11.5387 25.2012 11.6318C25.1296 11.7249 25.0938 11.7965 25.0938 11.8467C25.0938 11.9111 25.1081 11.9756 25.1367 12.04C25.1725 12.0973 25.2119 12.1582 25.2549 12.2227C25.2979 12.2799 25.3408 12.3372 25.3838 12.3945C25.4339 12.4447 25.4733 12.4948 25.502 12.5449L25.8564 13.1572C25.8564 13.1715 25.86 13.2038 25.8672 13.2539C25.8743 13.304 25.8815 13.3613 25.8887 13.4258C25.8958 13.4902 25.8994 13.5547 25.8994 13.6191C25.9066 13.6764 25.9102 13.7158 25.9102 13.7373L26.1465 13.9951C26.1895 14.0667 26.2181 14.1383 26.2324 14.21C26.2539 14.2744 26.2718 14.3353 26.2861 14.3926C26.3076 14.4499 26.3291 14.5036 26.3506 14.5537C26.3792 14.5967 26.4258 14.6325 26.4902 14.6611C26.5046 14.6755 26.5332 14.6969 26.5762 14.7256C26.6191 14.7471 26.6621 14.7721 26.7051 14.8008C26.748 14.8294 26.7874 14.8545 26.8232 14.876C26.859 14.8903 26.8841 14.901 26.8984 14.9082H27.1562C27.1562 14.7578 27.1742 14.6289 27.21 14.5215C27.2529 14.4141 27.3031 14.3138 27.3604 14.2207C27.4176 14.1204 27.4821 14.0273 27.5537 13.9414C27.6325 13.8483 27.7113 13.748 27.79 13.6406C27.8258 13.5905 27.8652 13.5046 27.9082 13.3828C27.9583 13.2611 28.0049 13.1322 28.0479 12.9961C28.0908 12.8529 28.1266 12.7168 28.1553 12.5879C28.1839 12.4518 28.1982 12.3444 28.1982 12.2656C28.1982 12.0723 28.1553 11.904 28.0693 11.7607C27.9834 11.6104 27.8903 11.4528 27.79 11.2881C27.7757 11.2666 27.7614 11.2308 27.7471 11.1807C27.7327 11.1305 27.7256 11.0983 27.7256 11.084C27.7256 10.9622 27.7471 10.8691 27.79 10.8047C27.8402 10.7331 27.9118 10.6686 28.0049 10.6113C28.055 10.5684 28.098 10.5397 28.1338 10.5254C28.1768 10.5111 28.2233 10.5039 28.2734 10.5039L28.5635 10.5254C28.5706 10.5254 28.5885 10.5218 28.6172 10.5146C28.653 10.5075 28.6888 10.5003 28.7246 10.4932C28.7604 10.4788 28.7962 10.4681 28.832 10.4609C28.8678 10.4538 28.8893 10.4502 28.8965 10.4502C28.9108 10.4502 28.9609 10.4609 29.0469 10.4824C29.14 10.4967 29.208 10.5111 29.251 10.5254C29.2581 10.5254 29.2725 10.529 29.2939 10.5361C29.3226 10.5433 29.3548 10.554 29.3906 10.5684L29.5195 10.6113C29.6198 10.6257 29.7236 10.6364 29.8311 10.6436C29.9385 10.6507 30.0423 10.6543 30.1426 10.6543C30.2428 10.6543 30.3395 10.6507 30.4326 10.6436C30.5257 10.6364 30.6224 10.6257 30.7227 10.6113C30.7441 10.64 30.7764 10.6686 30.8193 10.6973C30.8695 10.7259 30.916 10.7581 30.959 10.7939C31.0091 10.8226 31.0485 10.8584 31.0771 10.9014C31.113 10.9372 31.1309 10.9766 31.1309 11.0195C31.1165 11.0339 31.1022 11.0518 31.0879 11.0732C31.0592 11.1162 31.0413 11.1449 31.0342 11.1592L30.9805 11.2129C30.959 11.2272 30.9053 11.2559 30.8193 11.2988C30.7406 11.3346 30.6546 11.3776 30.5615 11.4277C30.4684 11.4707 30.3825 11.5137 30.3037 11.5566C30.2249 11.5996 30.1784 11.6283 30.1641 11.6426C30.1569 11.6426 30.139 11.6569 30.1104 11.6855C30.0817 11.7142 30.0495 11.7464 30.0137 11.7822C29.985 11.8109 29.9528 11.8395 29.917 11.8682C29.8883 11.8968 29.8704 11.9111 29.8633 11.9111C29.8633 11.9255 29.8454 11.9434 29.8096 11.9648C29.7809 11.9863 29.7451 12.0078 29.7021 12.0293C29.6663 12.0508 29.6305 12.0723 29.5947 12.0938C29.5589 12.1081 29.5339 12.1152 29.5195 12.1152C29.4408 12.1868 29.3799 12.262 29.3369 12.3408C29.3011 12.4124 29.2474 12.4805 29.1758 12.5449C29.1686 12.5592 29.1257 12.5915 29.0469 12.6416C28.9681 12.6917 28.918 12.724 28.8965 12.7383C28.8965 12.7454 28.8786 12.7884 28.8428 12.8672C28.8141 12.946 28.7891 12.9997 28.7676 13.0283C28.7533 13.0426 28.7389 13.0892 28.7246 13.168C28.7174 13.2396 28.7067 13.279 28.6924 13.2861C28.6852 13.3005 28.6637 13.3255 28.6279 13.3613C28.5993 13.3971 28.5635 13.4365 28.5205 13.4795C28.4847 13.5153 28.4489 13.5511 28.4131 13.5869C28.3844 13.6156 28.363 13.6335 28.3486 13.6406C28.2699 13.7409 28.2233 13.859 28.209 13.9951C28.2018 14.1312 28.1839 14.2493 28.1553 14.3496C28.1481 14.3639 28.1338 14.389 28.1123 14.4248C28.098 14.4606 28.0765 14.5 28.0479 14.543C28.0264 14.5859 28.0049 14.6289 27.9834 14.6719C27.9619 14.7077 27.9404 14.7292 27.9189 14.7363C27.9189 14.7507 27.9046 14.7757 27.876 14.8115C27.8545 14.8402 27.8294 14.876 27.8008 14.9189C27.7721 14.9548 27.7435 14.9906 27.7148 15.0264C27.6862 15.0622 27.6683 15.0837 27.6611 15.0908C27.6468 15.1051 27.6325 15.1445 27.6182 15.209C27.6038 15.2663 27.5967 15.3021 27.5967 15.3164C27.5895 15.3737 27.5859 15.431 27.5859 15.4883C27.5859 15.5384 27.5859 15.585 27.5859 15.6279V15.8965C27.5859 15.9753 27.5824 16.0505 27.5752 16.1221C27.568 16.1865 27.5465 16.2653 27.5107 16.3584C27.4893 16.3942 27.4678 16.4264 27.4463 16.4551C27.432 16.4837 27.4176 16.5088 27.4033 16.5303C27.389 16.5446 27.3818 16.5553 27.3818 16.5625C27.346 16.6484 27.3245 16.7272 27.3174 16.7988C27.3174 16.8704 27.3174 16.9456 27.3174 17.0244V17.1748C27.3245 17.2178 27.3317 17.2822 27.3389 17.3682C27.346 17.4541 27.3532 17.5436 27.3604 17.6367C27.3675 17.7298 27.3711 17.8158 27.3711 17.8945C27.3783 17.9661 27.3818 18.0127 27.3818 18.0342C27.389 18.0413 27.3997 18.07 27.4141 18.1201C27.4284 18.1631 27.4427 18.1953 27.457 18.2168C27.4642 18.2383 27.4821 18.2741 27.5107 18.3242C27.5394 18.3743 27.5716 18.4281 27.6074 18.4854C27.6432 18.5426 27.679 18.5964 27.7148 18.6465C27.7507 18.6966 27.7757 18.7324 27.79 18.7539C27.8402 18.8255 27.9046 18.8864 27.9834 18.9365C28.0693 18.9795 28.1481 19.0225 28.2197 19.0654C28.2985 19.1084 28.3665 19.1585 28.4238 19.2158C28.4811 19.2731 28.5098 19.3483 28.5098 19.4414C28.5098 19.5632 28.4883 19.6562 28.4453 19.7207C28.4095 19.7852 28.3594 19.8353 28.2949 19.8711C28.2305 19.9069 28.1517 19.9355 28.0586 19.957C27.9727 19.9785 27.8831 20.0036 27.79 20.0322L27.6611 20.0967L27.3818 20.0322C27.3604 20.0251 27.321 20.0143 27.2637 20C27.2135 19.9857 27.1562 19.9714 27.0918 19.957C27.0345 19.9355 26.9808 19.9212 26.9307 19.9141C26.8805 19.8997 26.8483 19.8926 26.834 19.8926C26.8268 19.8783 26.7731 19.8711 26.6729 19.8711C26.5726 19.8711 26.4974 19.8711 26.4473 19.8711ZM42.7432 19.9033C42.5212 19.9033 42.3027 19.9248 42.0879 19.9678C41.8802 20.0036 41.6582 20.0215 41.4219 20.0215C41.4076 20.0215 41.3789 20.0215 41.3359 20.0215C41.293 20.0215 41.2464 20.0215 41.1963 20.0215C41.1533 20.0215 41.1104 20.0179 41.0674 20.0107C41.0244 20.0107 40.9958 20.0072 40.9814 20C40.96 19.9928 40.9277 19.9714 40.8848 19.9355C40.849 19.8997 40.806 19.8604 40.7559 19.8174C40.7129 19.7673 40.6735 19.7243 40.6377 19.6885C40.6019 19.6455 40.5804 19.6133 40.5732 19.5918C40.5446 19.5775 40.5195 19.5452 40.498 19.4951C40.4766 19.4378 40.4658 19.402 40.4658 19.3877C40.4658 19.2874 40.498 19.2087 40.5625 19.1514C40.6341 19.0941 40.7201 19.0475 40.8203 19.0117C40.9206 18.9759 41.0316 18.9473 41.1533 18.9258C41.2822 18.8971 41.4004 18.8613 41.5078 18.8184C41.6224 18.7754 41.7227 18.7181 41.8086 18.6465C41.9017 18.5749 41.9661 18.4746 42.002 18.3457V17.2178C42.0163 17.2035 42.0378 17.1533 42.0664 17.0674C42.1022 16.9814 42.1201 16.9313 42.1201 16.917V16.7988V16.6914C42.113 16.6771 42.0986 16.652 42.0771 16.6162C42.0557 16.5732 42.0306 16.5303 42.002 16.4873C41.9805 16.4372 41.959 16.3942 41.9375 16.3584C41.916 16.3154 41.9053 16.2904 41.9053 16.2832C41.9053 16.2617 41.8981 16.2188 41.8838 16.1543C41.8766 16.0898 41.8659 16.0218 41.8516 15.9502C41.8444 15.8714 41.8337 15.7962 41.8193 15.7246C41.8122 15.653 41.805 15.5993 41.7979 15.5635V14.9619V14.7363C41.7979 14.7292 41.7907 14.7041 41.7764 14.6611C41.7692 14.6182 41.7585 14.5752 41.7441 14.5322C41.737 14.4821 41.7262 14.4355 41.7119 14.3926C41.7048 14.3496 41.7012 14.3245 41.7012 14.3174C41.6868 14.2673 41.6689 14.1849 41.6475 14.0703C41.626 13.9557 41.6045 13.834 41.583 13.7051C41.5615 13.569 41.5436 13.4437 41.5293 13.3291C41.515 13.2145 41.5042 13.1322 41.4971 13.082C41.4899 13.0749 41.472 13.0713 41.4434 13.0713C41.4219 13.0713 41.404 13.0713 41.3896 13.0713C41.3109 13.0713 41.2393 13.0999 41.1748 13.1572C41.1104 13.2145 41.0531 13.2826 41.0029 13.3613C40.9528 13.4401 40.9062 13.5225 40.8633 13.6084C40.8275 13.6872 40.7988 13.7552 40.7773 13.8125C40.7559 13.8555 40.7129 13.9557 40.6484 14.1133C40.5911 14.2708 40.5267 14.4427 40.4551 14.6289C40.3835 14.8151 40.3154 14.9906 40.251 15.1553C40.1937 15.32 40.1579 15.4238 40.1436 15.4668C40.1149 15.5456 40.0791 15.6136 40.0361 15.6709C39.9932 15.721 39.9466 15.7712 39.8965 15.8213C39.8464 15.8714 39.7962 15.9251 39.7461 15.9824C39.696 16.0397 39.6566 16.1077 39.6279 16.1865C39.6064 16.2223 39.585 16.2796 39.5635 16.3584C39.542 16.43 39.5312 16.473 39.5312 16.4873C39.5241 16.5088 39.5133 16.5518 39.499 16.6162C39.4919 16.6735 39.4811 16.738 39.4668 16.8096C39.4596 16.874 39.4489 16.9385 39.4346 17.0029C39.4274 17.0602 39.4238 17.0996 39.4238 17.1211C39.4238 17.1354 39.4131 17.1641 39.3916 17.207C39.3701 17.2428 39.3451 17.2858 39.3164 17.3359C39.2949 17.3789 39.2734 17.4219 39.252 17.4648C39.2305 17.5007 39.2197 17.5221 39.2197 17.5293V18.0449C39.2054 18.138 39.1803 18.2884 39.1445 18.4961C39.1087 18.6966 39.0586 18.9043 38.9941 19.1191C38.9297 19.3268 38.8473 19.5094 38.7471 19.667C38.654 19.8245 38.5394 19.9033 38.4033 19.9033H38.2852C38.099 19.7601 37.9378 19.6061 37.8018 19.4414C37.6657 19.2695 37.5547 19.0762 37.4688 18.8613C37.4544 18.8542 37.4329 18.7969 37.4043 18.6895C37.3828 18.582 37.3685 18.5033 37.3613 18.4531C37.347 18.4316 37.3327 18.3923 37.3184 18.335C37.3112 18.2777 37.3005 18.2168 37.2861 18.1523C37.279 18.0807 37.2718 18.0163 37.2646 17.959C37.2575 17.8945 37.2503 17.8551 37.2432 17.8408C37.2432 17.805 37.2288 17.7477 37.2002 17.6689C37.1787 17.5902 37.1644 17.5436 37.1572 17.5293C37.1357 17.515 37.0964 17.4827 37.0391 17.4326C36.9818 17.3753 36.9531 17.3395 36.9531 17.3252C36.9388 17.3037 36.9245 17.2643 36.9102 17.207C36.903 17.1426 36.8923 17.0781 36.8779 17.0137C36.8708 16.9421 36.8636 16.8776 36.8564 16.8203C36.8493 16.7559 36.8421 16.7129 36.835 16.6914C36.835 16.6842 36.8242 16.6592 36.8027 16.6162C36.7884 16.5732 36.7705 16.5267 36.749 16.4766C36.7275 16.4193 36.7025 16.3656 36.6738 16.3154C36.6523 16.2581 36.638 16.2152 36.6309 16.1865C36.6165 16.1722 36.5986 16.1364 36.5771 16.0791C36.5557 16.0146 36.5449 15.9788 36.5449 15.9717C36.5306 15.9645 36.5055 15.943 36.4697 15.9072C36.4339 15.8643 36.3981 15.8213 36.3623 15.7783C36.3337 15.7282 36.305 15.6816 36.2764 15.6387C36.2477 15.5957 36.2298 15.5706 36.2227 15.5635C36.2083 15.542 36.1904 15.4954 36.1689 15.4238C36.1475 15.3522 36.126 15.277 36.1045 15.1982C36.083 15.1195 36.0651 15.0443 36.0508 14.9727C36.0365 14.901 36.0257 14.8545 36.0186 14.833C36.0042 14.8187 35.9827 14.7865 35.9541 14.7363C35.9326 14.679 35.9183 14.6432 35.9111 14.6289C35.8968 14.6217 35.8789 14.6038 35.8574 14.5752C35.8359 14.5465 35.8145 14.5143 35.793 14.4785C35.7715 14.4427 35.75 14.4105 35.7285 14.3818C35.7142 14.346 35.707 14.3245 35.707 14.3174C35.6927 14.3102 35.6748 14.2887 35.6533 14.2529C35.6318 14.21 35.6104 14.167 35.5889 14.124C35.5674 14.0739 35.5459 14.0273 35.5244 13.9844C35.5101 13.9414 35.5029 13.9163 35.5029 13.9092C35.4528 13.859 35.374 13.8125 35.2666 13.7695C35.1592 13.7194 35.1019 13.6979 35.0947 13.7051L34.9766 13.8125C34.9694 13.8483 34.9551 13.9128 34.9336 14.0059C34.9121 14.099 34.8906 14.1992 34.8691 14.3066C34.8477 14.4141 34.8262 14.5179 34.8047 14.6182C34.7904 14.7184 34.7796 14.79 34.7725 14.833C34.6937 15.2197 34.6436 15.6029 34.6221 15.9824C34.6077 16.3548 34.5898 16.7344 34.5684 17.1211C34.5684 17.1354 34.5612 17.1676 34.5469 17.2178C34.5326 17.2679 34.5182 17.3216 34.5039 17.3789C34.4896 17.4362 34.4753 17.4899 34.4609 17.54C34.4466 17.5902 34.4395 17.6188 34.4395 17.626V18.1094V18.5713C34.4609 18.5928 34.4967 18.6286 34.5469 18.6787C34.597 18.7217 34.6507 18.7718 34.708 18.8291C34.7653 18.8792 34.819 18.9294 34.8691 18.9795C34.9193 19.0225 34.9551 19.0547 34.9766 19.0762C35.0625 19.1335 35.1592 19.1657 35.2666 19.1729C35.374 19.1729 35.4743 19.1836 35.5674 19.2051C35.6676 19.2194 35.75 19.266 35.8145 19.3447C35.8789 19.4163 35.9111 19.556 35.9111 19.7637V19.7959C35.8896 19.8245 35.8538 19.8639 35.8037 19.9141C35.7536 19.957 35.7214 19.9857 35.707 20C35.6999 20.0072 35.6927 20.0107 35.6855 20.0107C35.6784 20.0179 35.6641 20.0215 35.6426 20.0215C35.6354 20.0215 35.6247 20.0179 35.6104 20.0107C35.6032 20.0036 35.5924 20 35.5781 20C35.571 20 35.5495 19.9964 35.5137 19.9893C35.4779 19.9749 35.4349 19.9642 35.3848 19.957C35.3346 19.9427 35.2881 19.932 35.2451 19.9248C35.2021 19.9105 35.1735 19.9033 35.1592 19.9033C35.1449 19.9033 35.0911 19.9105 34.998 19.9248C34.9121 19.932 34.8154 19.9427 34.708 19.957C34.6006 19.9642 34.5003 19.9749 34.4072 19.9893C34.3141 19.9964 34.2568 20 34.2354 20C34.2282 20.0072 34.1924 20.0107 34.1279 20.0107C34.0635 20.0179 33.9847 20.0215 33.8916 20.0215C33.8057 20.0215 33.7161 20.0215 33.623 20.0215C33.5371 20.0215 33.4619 20.0215 33.3975 20.0215C33.3473 20.0215 33.2793 20.0215 33.1934 20.0215C33.1074 20.0215 33.0215 20.0215 32.9355 20.0215C32.8496 20.0215 32.7708 20.0179 32.6992 20.0107C32.6348 20.0107 32.5954 20.0072 32.5811 20C32.5023 20 32.4092 20 32.3018 20C32.2015 19.9928 32.1012 19.9785 32.001 19.957C31.9079 19.9284 31.8255 19.8854 31.7539 19.8281C31.6895 19.7637 31.6572 19.6706 31.6572 19.5488C31.6572 19.3626 31.7181 19.223 31.8398 19.1299C31.9688 19.0296 32.1156 18.9508 32.2803 18.8936C32.4521 18.8291 32.624 18.7682 32.7959 18.7109C32.9678 18.6536 33.1003 18.5677 33.1934 18.4531C33.2077 18.446 33.2292 18.4137 33.2578 18.3564C33.2936 18.292 33.3294 18.2275 33.3652 18.1631C33.401 18.0915 33.4333 18.0234 33.4619 17.959C33.4906 17.8945 33.5085 17.8551 33.5156 17.8408C33.5299 17.8337 33.5479 17.8193 33.5693 17.7979C33.598 17.7692 33.623 17.7477 33.6445 17.7334C33.5443 17.6403 33.4762 17.5723 33.4404 17.5293C33.4118 17.4863 33.3975 17.4183 33.3975 17.3252C33.3975 17.3109 33.4046 17.293 33.4189 17.2715C33.4333 17.2428 33.4404 17.2249 33.4404 17.2178C33.4404 17.1676 33.4548 17.0531 33.4834 16.874C33.512 16.6878 33.5407 16.4909 33.5693 16.2832C33.6051 16.0755 33.6374 15.8822 33.666 15.7031C33.6947 15.5169 33.7126 15.4023 33.7197 15.3594C33.7269 15.3236 33.734 15.234 33.7412 15.0908C33.7555 14.9476 33.7663 14.7936 33.7734 14.6289C33.7878 14.4642 33.7985 14.3138 33.8057 14.1777C33.82 14.0345 33.8343 13.945 33.8486 13.9092C33.863 13.7731 33.8844 13.6406 33.9131 13.5117C33.9489 13.3757 33.9847 13.2432 34.0205 13.1143C34.0563 12.9854 34.0885 12.8564 34.1172 12.7275C34.1458 12.5915 34.1602 12.4518 34.1602 12.3086C34.1602 12.1081 34.1279 11.9434 34.0635 11.8145C34.0062 11.6784 33.8916 11.5495 33.7197 11.4277C33.6839 11.4277 33.623 11.4242 33.5371 11.417C33.4512 11.4027 33.3581 11.3919 33.2578 11.3848C33.1576 11.3704 33.0609 11.3597 32.9678 11.3525C32.8818 11.3382 32.821 11.3275 32.7852 11.3203C32.6562 11.2917 32.5381 11.2559 32.4307 11.2129C32.3232 11.1628 32.2695 11.0625 32.2695 10.9121C32.2695 10.8047 32.3018 10.7116 32.3662 10.6328C32.4307 10.554 32.5094 10.4896 32.6025 10.4395C32.6956 10.3822 32.7959 10.3428 32.9033 10.3213C33.0107 10.2926 33.1074 10.2783 33.1934 10.2783C33.222 10.2783 33.2793 10.2998 33.3652 10.3428C33.4512 10.3786 33.5013 10.3965 33.5156 10.3965C33.5443 10.3965 33.598 10.3822 33.6768 10.3535C33.7555 10.3177 33.8128 10.2926 33.8486 10.2783H34.1816C34.4395 10.2783 34.6901 10.2855 34.9336 10.2998C35.1771 10.3141 35.4349 10.3464 35.707 10.3965C35.8646 10.418 36.0042 10.5254 36.126 10.7188C36.2477 10.9049 36.3516 11.1234 36.4375 11.374C36.5234 11.6175 36.5986 11.861 36.6631 12.1045C36.7275 12.348 36.7848 12.5342 36.835 12.6631C36.8421 12.6774 36.86 12.7168 36.8887 12.7812C36.9173 12.8385 36.9495 12.903 36.9854 12.9746C37.0212 13.0391 37.0534 13.1035 37.082 13.168C37.1178 13.2324 37.1429 13.2718 37.1572 13.2861C37.1572 13.3005 37.1608 13.3327 37.168 13.3828C37.1823 13.4258 37.193 13.4795 37.2002 13.5439C37.2145 13.6012 37.2253 13.6549 37.2324 13.7051C37.2396 13.7552 37.2432 13.791 37.2432 13.8125C37.2503 13.8197 37.2646 13.8483 37.2861 13.8984C37.3076 13.9414 37.3291 13.9915 37.3506 14.0488C37.3792 14.1061 37.4043 14.1634 37.4258 14.2207C37.4473 14.2708 37.4616 14.3031 37.4688 14.3174C37.4759 14.346 37.4867 14.3962 37.501 14.4678C37.5153 14.5322 37.5332 14.6038 37.5547 14.6826C37.5762 14.7542 37.5977 14.8258 37.6191 14.8975C37.6406 14.9619 37.6585 15.0085 37.6729 15.0371C37.6729 15.0586 37.6764 15.0944 37.6836 15.1445C37.6908 15.1947 37.6979 15.2484 37.7051 15.3057C37.7122 15.363 37.7194 15.4167 37.7266 15.4668C37.7409 15.5169 37.7552 15.5492 37.7695 15.5635C37.8411 15.721 37.9235 15.8643 38.0166 15.9932C38.1097 16.1149 38.1992 16.2367 38.2852 16.3584C38.3783 16.4801 38.4606 16.609 38.5322 16.7451C38.6038 16.8812 38.6576 17.0387 38.6934 17.2178C38.7077 17.2178 38.7184 17.2214 38.7256 17.2285C38.7327 17.2285 38.7399 17.2285 38.7471 17.2285C38.8258 17.2285 38.8724 17.1891 38.8867 17.1104C38.9082 17.0244 38.9189 16.96 38.9189 16.917C38.9189 16.8239 38.8939 16.7415 38.8438 16.6699C38.7936 16.5983 38.7686 16.5124 38.7686 16.4121C38.7686 16.3047 38.8008 16.2044 38.8652 16.1113C38.9368 16.0182 39.0156 15.9287 39.1016 15.8428C39.1947 15.7497 39.2806 15.6566 39.3594 15.5635C39.4453 15.4632 39.5026 15.3558 39.5312 15.2412C39.5384 15.2197 39.5456 15.1768 39.5527 15.1123C39.5671 15.0407 39.5778 14.9655 39.585 14.8867C39.5993 14.8079 39.61 14.7363 39.6172 14.6719C39.6243 14.6003 39.6279 14.5537 39.6279 14.5322C39.6351 14.5251 39.6494 14.4928 39.6709 14.4355C39.6995 14.3711 39.721 14.3317 39.7354 14.3174C39.8571 14.1312 39.986 13.9342 40.1221 13.7266C40.2653 13.5117 40.3799 13.2969 40.4658 13.082C40.516 12.946 40.5625 12.8027 40.6055 12.6523C40.6556 12.502 40.7021 12.348 40.7451 12.1904C40.7881 12.0329 40.8275 11.8825 40.8633 11.7393C40.9062 11.5889 40.9456 11.4492 40.9814 11.3203C41.0316 11.1198 41.071 10.9551 41.0996 10.8262C41.1283 10.6973 41.1712 10.597 41.2285 10.5254C41.2858 10.4466 41.3717 10.3893 41.4863 10.3535C41.6009 10.3177 41.7728 10.2926 42.002 10.2783C42.0306 10.2783 42.0915 10.2747 42.1846 10.2676C42.2777 10.2604 42.3743 10.2533 42.4746 10.2461C42.582 10.2318 42.6787 10.221 42.7646 10.2139C42.8577 10.1995 42.9186 10.1924 42.9473 10.1924C43.1263 10.1781 43.3411 10.1566 43.5918 10.1279C43.8424 10.0921 44.0573 10.0742 44.2363 10.0742H44.29C44.3044 10.0885 44.3366 10.1136 44.3867 10.1494C44.444 10.1781 44.4798 10.1924 44.4941 10.1924C44.5013 10.1924 44.5299 10.1995 44.5801 10.2139C44.6374 10.221 44.6947 10.2318 44.752 10.2461C44.8092 10.2533 44.863 10.2604 44.9131 10.2676C44.9704 10.2747 45.0026 10.2783 45.0098 10.2783C45.0599 10.2998 45.0921 10.3392 45.1064 10.3965C45.1208 10.4466 45.1279 10.4932 45.1279 10.5361V10.6113C45.1279 10.7116 45.11 10.7904 45.0742 10.8477C45.0384 10.9049 44.9919 10.9479 44.9346 10.9766C44.8773 11.0052 44.8092 11.0303 44.7305 11.0518C44.6589 11.0661 44.5801 11.0876 44.4941 11.1162C44.4798 11.1162 44.444 11.1341 44.3867 11.1699C44.3366 11.1986 44.3044 11.2129 44.29 11.2129C44.2542 11.2201 44.1934 11.2236 44.1074 11.2236C44.0286 11.2236 43.9463 11.2236 43.8604 11.2236C43.7673 11.2236 43.6813 11.2236 43.6025 11.2236C43.5309 11.2236 43.4808 11.2201 43.4521 11.2129L43.2803 11.374L43.4307 13.8125V16.1865C43.6097 16.4515 43.735 16.7487 43.8066 17.0781C43.8854 17.4076 43.9427 17.7298 43.9785 18.0449C43.9857 18.0592 44 18.0807 44.0215 18.1094C44.0501 18.1309 44.0716 18.1416 44.0859 18.1416C44.1934 18.1989 44.3545 18.2705 44.5693 18.3564C44.7913 18.4352 45.0098 18.5247 45.2246 18.625C45.4395 18.7253 45.6292 18.8398 45.7939 18.9688C45.9587 19.0977 46.041 19.2373 46.041 19.3877C46.041 19.4808 46.0124 19.5703 45.9551 19.6562C45.8978 19.7422 45.8298 19.821 45.751 19.8926C45.6722 19.957 45.5827 20.0072 45.4824 20.043C45.3893 20.0859 45.307 20.1074 45.2354 20.1074H45.1064C45.085 20.1074 45.0241 20.1003 44.9238 20.0859C44.8236 20.0788 44.7126 20.068 44.5908 20.0537C44.4762 20.0465 44.3688 20.0358 44.2686 20.0215C44.1683 20.0143 44.1074 20.0072 44.0859 20H43.5596H43.3555C43.334 20 43.2982 19.9964 43.248 19.9893C43.1979 19.9749 43.1406 19.9642 43.0762 19.957C43.0189 19.9427 42.9652 19.932 42.915 19.9248C42.8721 19.9105 42.847 19.9033 42.8398 19.9033H42.7432ZM52.6904 18.5928C52.6833 18.5856 52.6725 18.5641 52.6582 18.5283C52.6439 18.4854 52.6296 18.4424 52.6152 18.3994C52.6009 18.3564 52.5866 18.3171 52.5723 18.2812C52.5651 18.2454 52.5615 18.224 52.5615 18.2168C52.5472 18.1953 52.54 18.1667 52.54 18.1309C52.54 18.0879 52.54 18.0413 52.54 17.9912C52.54 17.9482 52.54 17.9053 52.54 17.8623C52.54 17.8193 52.5472 17.7871 52.5615 17.7656C52.4613 17.6725 52.4004 17.5902 52.3789 17.5186C52.3646 17.4398 52.3574 17.3503 52.3574 17.25V17.0244C52.3574 17.0101 52.3503 16.9886 52.3359 16.96C52.3216 16.9313 52.3109 16.9098 52.3037 16.8955C52.2822 16.8812 52.2393 16.8418 52.1748 16.7773C52.1175 16.7129 52.071 16.6735 52.0352 16.6592C51.9779 16.609 51.9062 16.5768 51.8203 16.5625C51.7344 16.5482 51.6592 16.516 51.5947 16.4658C51.5804 16.4658 51.5446 16.4658 51.4873 16.4658C51.4372 16.4658 51.4049 16.4622 51.3906 16.4551C51.3405 16.4694 51.2796 16.4945 51.208 16.5303C51.1436 16.5589 51.1042 16.5804 51.0898 16.5947L50.9824 16.6592L50.4561 16.5947H50.1982C50.1051 16.5947 50.0085 16.6126 49.9082 16.6484C49.8079 16.6842 49.7077 16.7308 49.6074 16.7881C49.5143 16.8454 49.4248 16.9134 49.3389 16.9922C49.2601 17.0638 49.1956 17.139 49.1455 17.2178C49.1312 17.2321 49.1169 17.2751 49.1025 17.3467C49.0882 17.4183 49.0811 17.4613 49.0811 17.4756C49.0667 17.5186 49.0452 17.5651 49.0166 17.6152C48.988 17.6582 48.9736 17.7083 48.9736 17.7656L48.9521 18.0342L48.877 18.3135L48.9736 18.8076C48.9736 18.8219 48.9844 18.8398 49.0059 18.8613C49.0273 18.8828 49.0524 18.9079 49.0811 18.9365C49.1598 19.0153 49.1992 19.0618 49.1992 19.0762C49.1992 19.0833 49.21 19.0905 49.2314 19.0977C49.2601 19.1048 49.2887 19.112 49.3174 19.1191C49.346 19.1263 49.3747 19.1335 49.4033 19.1406C49.432 19.1406 49.4499 19.1406 49.457 19.1406C49.5 19.1406 49.5573 19.1442 49.6289 19.1514C49.7005 19.1585 49.7686 19.1764 49.833 19.2051C49.9046 19.2337 49.9655 19.2731 50.0156 19.3232C50.0658 19.3662 50.0908 19.4307 50.0908 19.5166C50.0908 19.6025 50.0586 19.6849 49.9941 19.7637C49.9297 19.8424 49.8509 19.8962 49.7578 19.9248C49.722 19.932 49.6647 19.9427 49.5859 19.957C49.5072 19.9714 49.4212 19.9893 49.3281 20.0107C49.235 20.0322 49.1455 20.0501 49.0596 20.0645C48.9736 20.0859 48.9128 20.1003 48.877 20.1074L48.6191 20L47.0615 20.1074C46.9684 20.0931 46.8861 20.0788 46.8145 20.0645C46.75 20.0501 46.6891 20.0286 46.6318 20C46.5817 19.9714 46.5352 19.932 46.4922 19.8818C46.4564 19.8317 46.417 19.7601 46.374 19.667C46.374 19.5381 46.4098 19.4342 46.4814 19.3555C46.5602 19.2695 46.6533 19.1979 46.7607 19.1406C46.8682 19.0833 46.9792 19.0332 47.0938 18.9902C47.2083 18.9401 47.3014 18.8936 47.373 18.8506C47.373 18.8363 47.3802 18.8255 47.3945 18.8184C47.416 18.804 47.4339 18.7897 47.4482 18.7754C47.5127 18.7109 47.5807 18.6357 47.6523 18.5498C47.7311 18.4639 47.7884 18.3708 47.8242 18.2705C47.8314 18.2633 47.8421 18.2419 47.8564 18.2061C47.8708 18.1702 47.8851 18.1309 47.8994 18.0879C47.9137 18.0449 47.9245 18.0055 47.9316 17.9697C47.946 17.9339 47.9531 17.9124 47.9531 17.9053C48.0319 17.6976 48.125 17.5114 48.2324 17.3467C48.3398 17.1748 48.4329 17.0065 48.5117 16.8418C48.5189 16.8346 48.5296 16.8132 48.5439 16.7773C48.5583 16.7415 48.5726 16.7021 48.5869 16.6592C48.6012 16.6162 48.612 16.5768 48.6191 16.541C48.6335 16.5052 48.6406 16.4801 48.6406 16.4658L48.8232 15.7031C48.8304 15.696 48.8411 15.6781 48.8555 15.6494C48.8698 15.6136 48.8841 15.5778 48.8984 15.542C48.9128 15.5062 48.9235 15.474 48.9307 15.4453C48.945 15.4167 48.9521 15.3988 48.9521 15.3916L49.1455 14.7578C49.1885 14.6003 49.2422 14.4714 49.3066 14.3711C49.3783 14.2637 49.4463 14.1383 49.5107 13.9951L49.5645 13.6836C49.5788 13.6549 49.5931 13.6084 49.6074 13.5439C49.6217 13.4723 49.6325 13.4329 49.6396 13.4258L49.7578 13.0498C49.7578 13.0212 49.7614 12.9818 49.7686 12.9316C49.7829 12.8815 49.7936 12.8278 49.8008 12.7705C49.8079 12.7132 49.8151 12.6595 49.8223 12.6094C49.8294 12.5521 49.833 12.5127 49.833 12.4912V11.6748C49.833 11.6533 49.8402 11.6211 49.8545 11.5781C49.876 11.5352 49.8975 11.4922 49.9189 11.4492C49.9404 11.3991 49.9655 11.3561 49.9941 11.3203C50.0228 11.2773 50.055 11.2451 50.0908 11.2236L50.4561 11.0947C50.4775 11.0947 50.5098 11.0697 50.5527 11.0195C50.6029 10.9622 50.6351 10.9264 50.6494 10.9121L51.0146 10.7402L51.2939 10.4717C51.4157 10.4717 51.516 10.5218 51.5947 10.6221C51.6807 10.7152 51.7487 10.8118 51.7988 10.9121C51.806 10.9479 51.8203 11.0052 51.8418 11.084C51.8704 11.1628 51.8955 11.2487 51.917 11.3418C51.9456 11.4277 51.9707 11.5101 51.9922 11.5889C52.0208 11.6676 52.0352 11.7214 52.0352 11.75V12.0615C52.0495 12.0758 52.0638 12.0973 52.0781 12.126C52.0924 12.1546 52.1032 12.1761 52.1104 12.1904C52.2106 12.3551 52.2965 12.5413 52.3682 12.749C52.4398 12.9495 52.5042 13.1536 52.5615 13.3613C52.5758 13.5046 52.583 13.5869 52.583 13.6084C52.5902 13.6299 52.6009 13.6406 52.6152 13.6406C52.6797 13.6406 52.7262 13.6729 52.7549 13.7373C52.7907 13.7946 52.8265 13.8626 52.8623 13.9414L52.9912 14.2959C52.9912 14.3174 53.002 14.3532 53.0234 14.4033C53.0449 14.4463 53.07 14.4964 53.0986 14.5537C53.1273 14.611 53.1523 14.6683 53.1738 14.7256C53.2025 14.7757 53.2204 14.8115 53.2275 14.833C53.2347 14.8402 53.2598 14.8724 53.3027 14.9297C53.3242 14.9583 53.3421 14.9834 53.3564 15.0049C53.3636 15.0192 53.3779 15.0586 53.3994 15.123C53.4209 15.1803 53.4424 15.2448 53.4639 15.3164C53.4854 15.388 53.5033 15.4561 53.5176 15.5205C53.5391 15.5778 53.5498 15.6136 53.5498 15.6279C53.5856 15.7712 53.625 15.918 53.668 16.0684C53.7181 16.2116 53.7826 16.3441 53.8613 16.4658C53.8613 16.4873 53.89 16.5339 53.9473 16.6055C54.0046 16.6699 54.0368 16.7129 54.0439 16.7344L54.1084 17.0244C54.137 17.1462 54.1657 17.2464 54.1943 17.3252C54.223 17.404 54.2409 17.4827 54.248 17.5615C54.248 17.583 54.2552 17.626 54.2695 17.6904C54.291 17.7549 54.3125 17.8265 54.334 17.9053C54.3555 17.9769 54.3734 18.0449 54.3877 18.1094C54.4092 18.1667 54.4199 18.2025 54.4199 18.2168C54.4342 18.2956 54.4701 18.3815 54.5273 18.4746C54.5846 18.5677 54.6419 18.625 54.6992 18.6465C54.7064 18.6536 54.7314 18.668 54.7744 18.6895C54.8245 18.7109 54.8747 18.736 54.9248 18.7646C54.9821 18.7861 55.0322 18.8076 55.0752 18.8291C55.1253 18.8506 55.154 18.8613 55.1611 18.8613C55.2471 18.9186 55.3258 18.9616 55.3975 18.9902C55.4762 19.0117 55.5407 19.0404 55.5908 19.0762C55.641 19.1048 55.6803 19.1478 55.709 19.2051C55.7376 19.2624 55.752 19.3483 55.752 19.4629C55.752 19.5703 55.6947 19.6634 55.5801 19.7422C55.4655 19.8138 55.3294 19.8747 55.1719 19.9248C55.0215 19.9678 54.8675 20 54.71 20.0215C54.5596 20.043 54.4486 20.0537 54.377 20.0537C54.1908 20.0537 54.0189 20.0286 53.8613 19.9785C53.7109 19.9284 53.5319 19.9033 53.3242 19.9033L52.4863 20C52.4147 20 52.3252 19.9964 52.2178 19.9893C52.1104 19.9749 52.0029 19.9535 51.8955 19.9248C51.7952 19.889 51.7057 19.8424 51.627 19.7852C51.5553 19.7279 51.5195 19.6491 51.5195 19.5488C51.5195 19.4128 51.5804 19.3197 51.7021 19.2695C51.8239 19.2122 51.9564 19.1621 52.0996 19.1191C52.25 19.0762 52.3861 19.026 52.5078 18.9688C52.6296 18.9043 52.6904 18.7969 52.6904 18.6465V18.5928ZM50.6494 15.8213C50.6566 15.8213 50.6816 15.8285 50.7246 15.8428C50.7747 15.8499 50.8285 15.8607 50.8857 15.875C50.9502 15.8893 51.0111 15.9036 51.0684 15.918C51.1328 15.9323 51.1829 15.943 51.2188 15.9502L51.4658 16.0039C51.473 15.9967 51.5016 15.9896 51.5518 15.9824C51.6019 15.9753 51.6556 15.9645 51.7129 15.9502L51.9277 15.9072L51.7236 15.0908C51.7093 15.0264 51.695 14.9404 51.6807 14.833C51.6735 14.7184 51.6699 14.6432 51.6699 14.6074C51.6699 14.5143 51.6592 14.4355 51.6377 14.3711C51.6234 14.2995 51.6019 14.2314 51.5732 14.167C51.5446 14.1025 51.5124 14.0381 51.4766 13.9736C51.4408 13.902 51.4049 13.8232 51.3691 13.7373C51.3548 13.6872 51.3047 13.6299 51.2188 13.5654C51.14 13.501 51.0719 13.4401 51.0146 13.3828C50.9932 13.3613 50.9574 13.3506 50.9072 13.3506C50.8428 13.3506 50.7783 13.3757 50.7139 13.4258C50.6494 13.4759 50.5778 13.501 50.499 13.501C50.4346 13.501 50.3665 13.5547 50.2949 13.6621C50.2305 13.7695 50.166 13.8949 50.1016 14.0381C50.0443 14.1742 49.9941 14.3138 49.9512 14.457C49.9154 14.5931 49.8939 14.6934 49.8867 14.7578V15.5742C49.901 15.5957 49.9225 15.6387 49.9512 15.7031C49.9798 15.7676 50.0013 15.807 50.0156 15.8213C50.0299 15.8356 50.0443 15.8535 50.0586 15.875C50.0729 15.8893 50.0944 15.8965 50.123 15.8965C50.1374 15.8965 50.1696 15.8929 50.2197 15.8857C50.277 15.8786 50.3343 15.8714 50.3916 15.8643C50.4489 15.8499 50.5026 15.8392 50.5527 15.832C50.6029 15.8249 50.6351 15.8213 50.6494 15.8213ZM61.123 19.8711C61.0443 19.8711 60.9798 19.8818 60.9297 19.9033C60.8796 19.9248 60.8294 19.9499 60.7793 19.9785C60.7363 20 60.6898 20.0215 60.6396 20.043C60.5895 20.0645 60.5286 20.0752 60.457 20.0752C60.3783 20.0752 60.2995 20.0609 60.2207 20.0322C60.1491 20.0107 60.0703 20 59.9844 20C59.8197 20.0286 59.6693 20.0573 59.5332 20.0859C59.3971 20.1146 59.2575 20.1289 59.1143 20.1289H58.8887C58.86 20.0931 58.8421 20.0609 58.835 20.0322C58.835 20.0107 58.835 19.9821 58.835 19.9463C58.835 19.8818 58.8457 19.8138 58.8672 19.7422C58.8887 19.6634 58.9173 19.599 58.9531 19.5488C58.9603 19.5417 58.9746 19.5273 58.9961 19.5059C59.0247 19.4772 59.0534 19.4521 59.082 19.4307C59.1107 19.402 59.1393 19.377 59.168 19.3555C59.1966 19.3268 59.2181 19.3053 59.2324 19.291C59.3184 19.2194 59.4007 19.1729 59.4795 19.1514C59.5583 19.1299 59.637 19.112 59.7158 19.0977C59.8018 19.0833 59.8877 19.0547 59.9736 19.0117C60.0596 18.9688 60.1527 18.89 60.2529 18.7754C60.2601 18.7611 60.2744 18.7396 60.2959 18.7109C60.3174 18.6751 60.3281 18.6536 60.3281 18.6465V17.6797C60.2708 17.5365 60.2243 17.3825 60.1885 17.2178C60.1527 17.0531 60.1348 16.8955 60.1348 16.7451V16.6377L60.2529 16.2295C60.2529 16.2223 60.2458 16.2044 60.2314 16.1758C60.2243 16.1471 60.21 16.1149 60.1885 16.0791C60.1742 16.0433 60.1598 16.0111 60.1455 15.9824C60.1383 15.9466 60.1348 15.9215 60.1348 15.9072V15.7031L60.21 15.1338C60.21 15.0693 60.1956 15.0156 60.167 14.9727C60.1455 14.9225 60.1348 14.8688 60.1348 14.8115L60.3281 14.4248C60.3281 14.4105 60.3066 14.3675 60.2637 14.2959C60.2207 14.2243 60.1849 14.1813 60.1562 14.167V12.9961L60.0596 12.792V11.6211C60.0596 11.5495 60.0202 11.5029 59.9414 11.4814C59.8698 11.4528 59.7803 11.4349 59.6729 11.4277C59.5726 11.4134 59.4652 11.4062 59.3506 11.4062C59.2432 11.4062 59.1572 11.3955 59.0928 11.374C59.0785 11.3669 59.0212 11.3418 58.9209 11.2988C58.8206 11.2487 58.7311 11.2236 58.6523 11.2236C58.5664 11.2236 58.4948 11.2415 58.4375 11.2773C58.3874 11.3132 58.3372 11.3561 58.2871 11.4062C58.237 11.4492 58.1833 11.4922 58.126 11.5352C58.0687 11.5781 58.0007 11.6068 57.9219 11.6211C57.9076 11.6283 57.8717 11.6354 57.8145 11.6426C57.7572 11.6497 57.6963 11.6569 57.6318 11.6641C57.5674 11.6641 57.5065 11.6676 57.4492 11.6748C57.3919 11.682 57.3597 11.6891 57.3525 11.6963C57.3382 11.6963 57.3203 11.6999 57.2988 11.707C57.2773 11.7142 57.2559 11.7214 57.2344 11.7285L57.1484 11.75C57.1198 11.7786 57.0697 11.8252 56.998 11.8896C56.9336 11.9541 56.8978 11.9935 56.8906 12.0078C56.8763 12.0293 56.862 12.0758 56.8477 12.1475C56.8333 12.2191 56.8262 12.2585 56.8262 12.2656L56.6865 12.416L56.6006 12.4375C56.5791 12.4447 56.5576 12.4518 56.5361 12.459C56.5146 12.4661 56.5003 12.4697 56.4932 12.4697C56.4717 12.484 56.4395 12.5127 56.3965 12.5557C56.3535 12.5986 56.3034 12.6452 56.2461 12.6953C56.196 12.7383 56.1494 12.7812 56.1064 12.8242C56.0635 12.8672 56.0312 12.8994 56.0098 12.9209C55.9453 12.9209 55.888 12.8994 55.8379 12.8564C55.7949 12.8135 55.7555 12.7741 55.7197 12.7383V12.2656C55.7197 12.1439 55.7233 11.9863 55.7305 11.793C55.7448 11.5924 55.7734 11.3991 55.8164 11.2129C55.8665 11.0195 55.9417 10.8548 56.042 10.7188C56.1494 10.5755 56.2998 10.5039 56.4932 10.5039L57.2021 10.6006C57.2523 10.6006 57.3167 10.597 57.3955 10.5898C57.4743 10.5827 57.5208 10.5791 57.5352 10.5791C57.5495 10.5791 57.5924 10.5719 57.6641 10.5576C57.7357 10.5361 57.8861 10.5254 58.1152 10.5254C58.2943 10.5039 58.4733 10.4788 58.6523 10.4502C58.8314 10.4144 59.0104 10.3965 59.1895 10.3965C59.2897 10.3965 59.3864 10.4108 59.4795 10.4395C59.5726 10.4609 59.6729 10.4717 59.7803 10.4717L60.4355 10.3965H60.5859C60.6361 10.3965 60.6826 10.4036 60.7256 10.418C60.7686 10.4323 60.8079 10.4681 60.8438 10.5254H61.6279C61.6351 10.5254 61.6745 10.5182 61.7461 10.5039C61.8249 10.4824 61.8714 10.4645 61.8857 10.4502H62.0146C62.0576 10.4574 62.1221 10.4681 62.208 10.4824C62.2939 10.4896 62.3763 10.4967 62.4551 10.5039C62.541 10.5111 62.6162 10.5182 62.6807 10.5254C62.7451 10.5254 62.7845 10.5254 62.7988 10.5254L62.9277 10.5791C62.9421 10.5863 62.9564 10.5898 62.9707 10.5898C62.985 10.597 62.9993 10.6006 63.0137 10.6006C63.1283 10.6006 63.2249 10.5648 63.3037 10.4932C63.3896 10.4144 63.4756 10.3571 63.5615 10.3213C63.6188 10.307 63.6976 10.2819 63.7979 10.2461C63.8981 10.2103 63.9554 10.1924 63.9697 10.1924H64.9365C64.9508 10.2067 64.9831 10.221 65.0332 10.2354C65.0833 10.2497 65.1191 10.2568 65.1406 10.2568H65.6025C65.6097 10.2568 65.624 10.2712 65.6455 10.2998C65.6742 10.3213 65.7028 10.3499 65.7314 10.3857C65.7673 10.4215 65.7995 10.4574 65.8281 10.4932C65.8639 10.529 65.889 10.5576 65.9033 10.5791C66.0251 10.7295 66.111 10.8656 66.1611 10.9873C66.2113 11.109 66.2363 11.2773 66.2363 11.4922C66.2363 11.5065 66.2256 11.5387 66.2041 11.5889C66.1898 11.639 66.1755 11.6748 66.1611 11.6963V12.7383C66.1611 12.7669 66.1468 12.7848 66.1182 12.792C66.0895 12.792 66.0645 12.792 66.043 12.792C66 12.792 65.9678 12.792 65.9463 12.792C65.9248 12.7848 65.889 12.7669 65.8389 12.7383L65.3232 12.416C65.3018 12.3945 65.2552 12.3551 65.1836 12.2979C65.1191 12.2406 65.0475 12.1797 64.9688 12.1152C64.89 12.0508 64.8148 11.9899 64.7432 11.9326C64.6715 11.8753 64.625 11.8395 64.6035 11.8252C64.6035 11.8109 64.5749 11.7858 64.5176 11.75C64.4603 11.7142 64.4245 11.6963 64.4102 11.6963L64.1523 11.4922C64.1309 11.4779 64.0951 11.46 64.0449 11.4385C63.9948 11.417 63.9447 11.3955 63.8945 11.374C63.8516 11.3525 63.8086 11.3346 63.7656 11.3203C63.7298 11.306 63.7083 11.2988 63.7012 11.2988H62.6699C62.6556 11.306 62.6377 11.3167 62.6162 11.3311C62.5732 11.3597 62.5482 11.374 62.541 11.374C62.5052 11.3955 62.4515 11.4242 62.3799 11.46C62.3154 11.4958 62.2474 11.5352 62.1758 11.5781C62.1113 11.6139 62.0505 11.6497 61.9932 11.6855C61.9359 11.7214 61.9001 11.7428 61.8857 11.75C61.8499 11.7643 61.8285 11.7822 61.8213 11.8037C61.8141 11.8252 61.8105 11.8431 61.8105 11.8574V12.0078C61.8105 12.0293 61.8213 12.0544 61.8428 12.083C61.8571 12.1045 61.8714 12.1224 61.8857 12.1367C61.943 12.4017 61.9896 12.6559 62.0254 12.8994C62.0684 13.1357 62.1077 13.3828 62.1436 13.6406C62.1794 13.9056 62.2188 14.1634 62.2617 14.4141C62.3047 14.6647 62.3262 14.9225 62.3262 15.1875V16.2295C62.3333 16.251 62.3405 16.3011 62.3477 16.3799C62.3548 16.4515 62.362 16.5339 62.3691 16.627C62.3763 16.7129 62.3835 16.7952 62.3906 16.874C62.3978 16.9528 62.4014 17.0029 62.4014 17.0244L62.3262 17.9375C62.3262 17.9948 62.3262 18.0736 62.3262 18.1738C62.3333 18.2669 62.3441 18.3636 62.3584 18.4639C62.3799 18.557 62.4085 18.6465 62.4443 18.7324C62.4801 18.8184 62.5303 18.8757 62.5947 18.9043C62.6234 18.9115 62.6735 18.9258 62.7451 18.9473C62.8239 18.9688 62.9027 18.9938 62.9814 19.0225C63.0674 19.0511 63.1462 19.0798 63.2178 19.1084C63.2894 19.1299 63.3395 19.1478 63.3682 19.1621C63.5114 19.2122 63.6152 19.2695 63.6797 19.334C63.7441 19.3913 63.7764 19.4951 63.7764 19.6455C63.7764 19.7529 63.7513 19.8424 63.7012 19.9141C63.651 19.9857 63.5866 20.043 63.5078 20.0859C63.429 20.1289 63.3395 20.1576 63.2393 20.1719C63.1462 20.1934 63.0531 20.2041 62.96 20.2041H62.7988L62.5947 20.0752H62.0898C62.0684 20.068 62.0218 20.0537 61.9502 20.0322C61.8786 20.0179 61.7998 20 61.7139 19.9785C61.6351 19.9499 61.5599 19.9284 61.4883 19.9141C61.4238 19.8926 61.3844 19.8783 61.3701 19.8711H61.123ZM67.4717 19.5381C67.4717 19.5238 67.4896 19.4844 67.5254 19.4199C67.5612 19.3555 67.5863 19.3125 67.6006 19.291C67.7008 19.1621 67.8369 19.0726 68.0088 19.0225C68.1807 18.9652 68.349 18.9365 68.5137 18.9365C68.5638 18.9365 68.6068 18.9365 68.6426 18.9365C68.6855 18.9365 68.7285 18.9437 68.7715 18.958C68.8503 18.9007 68.9147 18.8327 68.9648 18.7539C69.0221 18.6751 69.0687 18.5892 69.1045 18.4961C69.0973 18.4674 69.0902 18.4209 69.083 18.3564C69.0758 18.2848 69.0723 18.2061 69.0723 18.1201C69.0723 18.0413 69.0758 17.9661 69.083 17.8945C69.0902 17.8158 69.0973 17.762 69.1045 17.7334C69.1188 17.6188 69.1546 17.515 69.2119 17.4219C69.2692 17.3288 69.2979 17.2214 69.2979 17.0996V17.0029L69.1689 16.7451V16.4336C69.1475 16.2402 69.1188 16.0469 69.083 15.8535C69.0472 15.653 69.0293 15.4489 69.0293 15.2412L69.1689 14.457L69.1475 14.0488C69.1475 14.0202 69.1475 13.9915 69.1475 13.9629C69.1475 13.9271 69.1546 13.8949 69.1689 13.8662C69.1833 13.7516 69.194 13.637 69.2012 13.5225C69.2155 13.4079 69.2227 13.2933 69.2227 13.1787C69.2227 13.0641 69.2155 12.9531 69.2012 12.8457C69.194 12.7311 69.1833 12.613 69.1689 12.4912C69.1546 12.4124 69.1475 12.3301 69.1475 12.2441C69.1546 12.151 69.1403 12.0651 69.1045 11.9863C69.0472 11.8789 68.9792 11.7786 68.9004 11.6855C68.8216 11.5853 68.7357 11.4993 68.6426 11.4277C68.5566 11.3561 68.4635 11.3132 68.3633 11.2988C68.263 11.2773 68.1592 11.263 68.0518 11.2559C67.9515 11.2415 67.8548 11.2165 67.7617 11.1807C67.6758 11.1449 67.6042 11.0732 67.5469 10.9658C67.5397 10.9587 67.5361 10.9479 67.5361 10.9336C67.529 10.9264 67.5254 10.9121 67.5254 10.8906C67.5254 10.8262 67.5433 10.776 67.5791 10.7402C67.6221 10.6973 67.6686 10.665 67.7188 10.6436C67.776 10.6221 67.8369 10.6077 67.9014 10.6006C67.9658 10.5934 68.0195 10.5863 68.0625 10.5791H68.5137C68.6139 10.5648 68.7178 10.5361 68.8252 10.4932C68.9398 10.4502 69.0544 10.4287 69.1689 10.4287C69.1833 10.4287 69.2083 10.4287 69.2441 10.4287C69.2799 10.4287 69.2979 10.4359 69.2979 10.4502C69.305 10.4502 69.3444 10.4717 69.416 10.5146C69.4876 10.5576 69.5342 10.5791 69.5557 10.5791H69.9961L70.7051 10.6328C70.7194 10.6471 70.748 10.6543 70.791 10.6543C70.8411 10.6543 70.8734 10.6543 70.8877 10.6543C71.0023 10.6543 71.0954 10.6436 71.167 10.6221C71.2458 10.5934 71.346 10.5791 71.4678 10.5791C71.7256 10.5791 71.9906 10.5898 72.2627 10.6113C72.5348 10.6328 72.8034 10.6829 73.0684 10.7617C73.2402 10.8118 73.4049 10.8548 73.5625 10.8906C73.7201 10.9193 73.8669 10.9587 74.0029 11.0088C74.1462 11.0518 74.2786 11.1162 74.4004 11.2021C74.5293 11.2809 74.6475 11.3955 74.7549 11.5459C74.8408 11.6748 74.9089 11.7822 74.959 11.8682C75.0163 11.9469 75.0592 12.0293 75.0879 12.1152C75.1165 12.194 75.1344 12.2871 75.1416 12.3945C75.1488 12.4948 75.1523 12.6273 75.1523 12.792C75.1523 12.9352 75.1309 13.0749 75.0879 13.2109C75.0521 13.3398 74.9805 13.458 74.873 13.5654C74.8516 13.5869 74.8122 13.6299 74.7549 13.6943C74.6976 13.7588 74.6331 13.8268 74.5615 13.8984C74.4899 13.9629 74.4219 14.0273 74.3574 14.0918C74.3001 14.1562 74.2607 14.1992 74.2393 14.2207C74.2106 14.2207 74.1605 14.2279 74.0889 14.2422C74.0244 14.2565 73.9886 14.2744 73.9814 14.2959C73.9671 14.3031 73.9313 14.321 73.874 14.3496C73.8239 14.3711 73.7666 14.3962 73.7021 14.4248C73.6449 14.4463 73.5911 14.4714 73.541 14.5C73.4909 14.5215 73.4622 14.5322 73.4551 14.5322C73.4193 14.5465 73.3763 14.5573 73.3262 14.5645C73.2832 14.5716 73.2402 14.5824 73.1973 14.5967C73.1543 14.6038 73.1185 14.6217 73.0898 14.6504C73.0612 14.6719 73.0469 14.7077 73.0469 14.7578C73.0469 14.8509 73.0612 14.9512 73.0898 15.0586C73.1185 15.1589 73.1543 15.2591 73.1973 15.3594C73.2474 15.4525 73.3047 15.542 73.3691 15.6279C73.4336 15.7139 73.5016 15.7819 73.5732 15.832C73.5876 15.8464 73.6198 15.875 73.6699 15.918C73.7272 15.9538 73.763 15.9717 73.7773 15.9717L73.8418 16.0469C73.8561 16.054 73.8883 16.097 73.9385 16.1758C73.9958 16.2474 74.0352 16.2904 74.0566 16.3047C74.0566 16.3047 74.071 16.3226 74.0996 16.3584C74.1283 16.387 74.1605 16.4193 74.1963 16.4551C74.2321 16.4909 74.2643 16.5267 74.293 16.5625C74.3288 16.5983 74.3538 16.6234 74.3682 16.6377C74.3753 16.652 74.3968 16.6986 74.4326 16.7773C74.4684 16.849 74.5078 16.9277 74.5508 17.0137C74.5938 17.0996 74.6331 17.182 74.6689 17.2607C74.7119 17.3324 74.7406 17.3789 74.7549 17.4004C74.762 17.4147 74.7835 17.4469 74.8193 17.4971C74.8551 17.5472 74.8945 17.6045 74.9375 17.6689C74.9876 17.7334 75.0378 17.7979 75.0879 17.8623C75.138 17.9196 75.1774 17.9626 75.2061 17.9912C75.2848 18.0843 75.3672 18.1631 75.4531 18.2275C75.5391 18.292 75.6286 18.3636 75.7217 18.4424L76.248 18.8291L76.9141 18.9043C76.9427 18.9115 76.9893 18.9294 77.0537 18.958C77.1182 18.9867 77.179 19.026 77.2363 19.0762C77.3008 19.1191 77.3545 19.1693 77.3975 19.2266C77.4476 19.2767 77.4727 19.3304 77.4727 19.3877C77.4727 19.4163 77.4548 19.4665 77.4189 19.5381C77.3831 19.6025 77.3366 19.6706 77.2793 19.7422C77.2292 19.8066 77.1719 19.8675 77.1074 19.9248C77.0501 19.9749 76.9964 20 76.9463 20H76.0547C75.9759 19.9355 75.8613 19.889 75.7109 19.8604C75.5605 19.8317 75.4352 19.8102 75.335 19.7959H74.5508C74.2643 19.6956 74.0531 19.5488 73.917 19.3555C73.7809 19.1549 73.6663 18.9186 73.5732 18.6465C73.5732 18.6322 73.5589 18.5999 73.5303 18.5498C73.5088 18.4925 73.4587 18.4137 73.3799 18.3135L73.3047 17.9912C73.3047 17.9769 73.2975 17.9554 73.2832 17.9268C73.276 17.8981 73.2653 17.8766 73.251 17.8623C73.208 17.7979 73.1471 17.7119 73.0684 17.6045C72.9967 17.4899 72.9215 17.3753 72.8428 17.2607C72.7712 17.1462 72.7031 17.0495 72.6387 16.9707C72.5814 16.8848 72.5492 16.8346 72.542 16.8203L71.7686 15.9717C71.6683 15.8714 71.5537 15.7891 71.4248 15.7246C71.2959 15.6602 71.167 15.6279 71.0381 15.6279C71.0094 15.6279 70.9844 15.6315 70.9629 15.6387C70.9414 15.6458 70.9235 15.6673 70.9092 15.7031C70.9092 15.7246 70.9128 15.7568 70.9199 15.7998C70.9271 15.8356 70.9307 15.8786 70.9307 15.9287C70.9307 15.9788 70.9271 16.0254 70.9199 16.0684C70.9128 16.1113 70.9092 16.14 70.9092 16.1543L70.8555 16.4336V17.1963C70.8555 17.2106 70.8447 17.2572 70.8232 17.3359C70.8089 17.4147 70.7946 17.472 70.7803 17.5078C70.7803 17.6582 70.7982 17.7835 70.834 17.8838C70.877 17.9769 70.9271 18.0951 70.9844 18.2383L70.9092 18.5713C70.9092 18.7002 70.9557 18.779 71.0488 18.8076C71.1491 18.8363 71.2529 18.8577 71.3604 18.8721C71.4749 18.8864 71.5788 18.9222 71.6719 18.9795C71.7721 19.0368 71.8223 19.1549 71.8223 19.334C71.8223 19.4414 71.79 19.5238 71.7256 19.5811C71.6683 19.6312 71.5967 19.667 71.5107 19.6885C71.4248 19.71 71.3317 19.7243 71.2314 19.7314C71.1383 19.7314 71.056 19.735 70.9844 19.7422H69.7383C69.7025 19.7493 69.6344 19.7601 69.5342 19.7744C69.4411 19.7816 69.3372 19.7923 69.2227 19.8066C69.1152 19.8138 69.0114 19.8245 68.9111 19.8389C68.8109 19.8532 68.7393 19.8639 68.6963 19.8711C68.6175 19.9284 68.5566 19.9642 68.5137 19.9785C68.4779 19.9928 68.4277 20 68.3633 20C68.2487 20 68.1556 19.9785 68.084 19.9355C68.0195 19.8926 67.9443 19.846 67.8584 19.7959C67.8512 19.7959 67.819 19.7923 67.7617 19.7852C67.7044 19.7708 67.6686 19.7565 67.6543 19.7422C67.6257 19.7207 67.5863 19.6849 67.5361 19.6348C67.4932 19.5775 67.4717 19.5452 67.4717 19.5381ZM70.6514 13.5654C70.6657 13.5869 70.6764 13.6335 70.6836 13.7051C70.6979 13.7767 70.7051 13.8197 70.7051 13.834C70.7266 13.8984 70.7409 13.9701 70.748 14.0488C70.7552 14.1276 70.766 14.2064 70.7803 14.2852C70.7946 14.3639 70.8161 14.4355 70.8447 14.5C70.8734 14.5645 70.9199 14.6182 70.9844 14.6611C71.1133 14.7614 71.2279 14.833 71.3281 14.876C71.4355 14.9118 71.5824 14.9297 71.7686 14.9297C71.7829 14.9297 71.8115 14.9225 71.8545 14.9082C71.9046 14.8867 71.9368 14.876 71.9512 14.876L72.542 14.4785C72.585 14.4499 72.6387 14.4248 72.7031 14.4033C72.7676 14.3747 72.8285 14.3424 72.8857 14.3066C72.943 14.2708 72.9932 14.2314 73.0361 14.1885C73.0863 14.1455 73.1149 14.0954 73.1221 14.0381C73.1221 14.0238 73.1257 13.988 73.1328 13.9307C73.14 13.8734 73.1471 13.8125 73.1543 13.748C73.1615 13.6764 73.1686 13.6048 73.1758 13.5332C73.1829 13.4616 73.1901 13.4043 73.1973 13.3613V13.2861C73.1973 12.9639 73.1364 12.6488 73.0146 12.3408C72.9001 12.0329 72.7174 11.7679 72.4668 11.5459C72.388 11.4671 72.3057 11.3955 72.2197 11.3311C72.141 11.2594 72.0407 11.2236 71.9189 11.2236H71.7686L71.1133 11.2881C70.9271 11.417 70.8125 11.5674 70.7695 11.7393C70.7266 11.904 70.7051 12.0938 70.7051 12.3086V13.1035C70.7051 13.125 70.6979 13.1859 70.6836 13.2861C70.6764 13.3792 70.6657 13.4508 70.6514 13.501V13.5654ZM78.1279 19.6885C78.1279 19.5452 78.1745 19.4486 78.2676 19.3984C78.3607 19.3411 78.4753 19.3018 78.6113 19.2803C78.7474 19.2588 78.887 19.2409 79.0303 19.2266C79.1735 19.2122 79.2952 19.1729 79.3955 19.1084C79.4027 19.1012 79.4098 19.0905 79.417 19.0762C79.4385 19.0547 79.4492 19.0404 79.4492 19.0332C79.4707 19.0046 79.4993 18.958 79.5352 18.8936C79.5781 18.8291 79.6175 18.7646 79.6533 18.7002C79.6963 18.6286 79.7357 18.5641 79.7715 18.5068C79.8073 18.4424 79.8288 18.3994 79.8359 18.3779C79.8717 18.3206 79.8932 18.2633 79.9004 18.2061C79.9076 18.1416 79.9111 18.0449 79.9111 17.916C79.9111 17.8372 79.904 17.7728 79.8896 17.7227C79.8753 17.6725 79.861 17.626 79.8467 17.583C79.8324 17.54 79.818 17.4971 79.8037 17.4541C79.7894 17.404 79.7822 17.3467 79.7822 17.2822L79.9863 16.208C79.9863 16.1794 79.9792 16.1328 79.9648 16.0684C79.9577 15.9967 79.9398 15.875 79.9111 15.7031V15.1875C79.8968 15.166 79.8717 15.1087 79.8359 15.0156C79.8001 14.9154 79.7822 14.8366 79.7822 14.7793C79.8395 14.6003 79.8753 14.4248 79.8896 14.2529C79.904 14.0739 79.9111 13.8913 79.9111 13.7051V13.3506L79.8359 13.0176C79.8216 12.9316 79.8145 12.8457 79.8145 12.7598C79.8145 12.6667 79.8145 12.5771 79.8145 12.4912C79.8145 12.4124 79.8145 12.3301 79.8145 12.2441C79.8145 12.1582 79.8216 12.0687 79.8359 11.9756C79.8216 11.8968 79.7751 11.8216 79.6963 11.75C79.6175 11.6712 79.5602 11.6139 79.5244 11.5781C79.3812 11.4779 79.2272 11.4242 79.0625 11.417C78.9049 11.4098 78.7546 11.3991 78.6113 11.3848C78.4753 11.3704 78.3607 11.3275 78.2676 11.2559C78.1745 11.1771 78.1279 11.0195 78.1279 10.7832C78.1279 10.64 78.1888 10.5469 78.3105 10.5039C78.4323 10.4538 78.5505 10.4215 78.665 10.4072H79.2773C79.6068 10.4072 79.929 10.4036 80.2441 10.3965C80.5664 10.3893 80.8887 10.3678 81.2109 10.332C81.2611 10.2962 81.3219 10.2747 81.3936 10.2676C81.4652 10.2604 81.5404 10.2568 81.6191 10.2568H82.3281C82.3424 10.2568 82.3675 10.2604 82.4033 10.2676C82.4463 10.2747 82.4893 10.2855 82.5322 10.2998C82.5752 10.307 82.6146 10.3141 82.6504 10.3213C82.6862 10.3285 82.7077 10.332 82.7148 10.332C82.8151 10.332 82.9189 10.3428 83.0264 10.3643C83.1338 10.3786 83.1875 10.4144 83.1875 10.4717C83.1947 10.5075 83.2018 10.5433 83.209 10.5791C83.2161 10.6077 83.2197 10.64 83.2197 10.6758C83.2197 10.7188 83.2161 10.7653 83.209 10.8154C83.2018 10.8584 83.1947 10.8978 83.1875 10.9336C83.1732 10.9694 83.1374 11.0052 83.0801 11.041C83.0299 11.0697 82.9727 11.0983 82.9082 11.127C82.8438 11.1556 82.7793 11.1807 82.7148 11.2021C82.6504 11.2165 82.6074 11.2308 82.5859 11.2451L82.1992 11.5781C82.1419 11.6139 82.0703 11.639 81.9844 11.6533C81.8984 11.6676 81.8376 11.7106 81.8018 11.7822C81.7946 11.7965 81.7731 11.8359 81.7373 11.9004C81.7087 11.9648 81.6872 12.015 81.6729 12.0508C81.6657 12.0651 81.6549 12.1009 81.6406 12.1582C81.6335 12.1868 81.6263 12.2119 81.6191 12.2334V13.2217C81.6191 13.236 81.6263 13.2754 81.6406 13.3398C81.6549 13.3971 81.6657 13.4688 81.6729 13.5547C81.6729 13.569 81.6657 13.6012 81.6514 13.6514C81.637 13.7015 81.6191 13.7552 81.5977 13.8125C81.5833 13.8698 81.569 13.9235 81.5547 13.9736C81.5475 14.0238 81.5439 14.056 81.5439 14.0703V14.9834L81.4688 16.208L81.6729 17.1533V17.4756C81.6729 17.4899 81.6621 17.5365 81.6406 17.6152C81.6263 17.694 81.6191 17.7513 81.6191 17.7871C81.6191 17.8086 81.6299 17.848 81.6514 17.9053C81.68 17.9554 81.7087 18.0091 81.7373 18.0664C81.7731 18.1237 81.8053 18.1774 81.834 18.2275C81.8626 18.2777 81.877 18.3099 81.877 18.3242C81.8984 18.3887 81.9128 18.4674 81.9199 18.5605C81.9342 18.6465 81.9521 18.7324 81.9736 18.8184C82.0023 18.8971 82.0417 18.9652 82.0918 19.0225C82.1491 19.0798 82.2279 19.1084 82.3281 19.1084C82.4069 19.1084 82.4749 19.0977 82.5322 19.0762C82.5895 19.0475 82.6504 19.0332 82.7148 19.0332C82.765 19.0332 82.8294 19.0404 82.9082 19.0547C82.9941 19.069 83.0765 19.0941 83.1553 19.1299C83.234 19.1585 83.3021 19.2015 83.3594 19.2588C83.4167 19.3089 83.4453 19.3698 83.4453 19.4414C83.4453 19.556 83.4167 19.6527 83.3594 19.7314C83.3092 19.8031 83.2412 19.8639 83.1553 19.9141C83.0765 19.957 82.987 19.9857 82.8867 20C82.7865 20.0215 82.6934 20.0322 82.6074 20.0322L81.4365 19.9678H81.1357C81.1214 19.9678 81.0785 19.9785 81.0068 20C80.9352 20.0215 80.8923 20.0322 80.8779 20.0322H79.7822L79.3203 20.0967H78.9873C78.9085 20.0967 78.819 20.0931 78.7188 20.0859C78.6257 20.0859 78.5326 20.0716 78.4395 20.043C78.3535 20.0215 78.2783 19.9821 78.2139 19.9248C78.1566 19.8675 78.1279 19.7887 78.1279 19.6885ZM84.9062 19.7422C84.8848 19.7279 84.8597 19.7028 84.8311 19.667C84.8024 19.624 84.7809 19.5846 84.7666 19.5488C84.7666 19.5417 84.7738 19.5309 84.7881 19.5166C84.8024 19.5023 84.8167 19.4915 84.8311 19.4844C84.8812 19.4486 84.9421 19.4092 85.0137 19.3662C85.0853 19.3232 85.1605 19.2803 85.2393 19.2373C85.318 19.1943 85.3968 19.1549 85.4756 19.1191C85.5544 19.0762 85.6224 19.0404 85.6797 19.0117C85.9518 18.89 86.1846 18.7288 86.3779 18.5283C86.5713 18.3206 86.7718 18.113 86.9795 17.9053C87.001 17.9053 87.0368 17.8874 87.0869 17.8516C87.1442 17.8086 87.1764 17.7871 87.1836 17.7871C87.2051 17.7656 87.2409 17.7298 87.291 17.6797C87.3483 17.6296 87.402 17.5758 87.4521 17.5186C87.5094 17.4613 87.5596 17.4076 87.6025 17.3574C87.6527 17.3073 87.6885 17.2715 87.71 17.25C87.7529 17.1999 87.778 17.1354 87.7852 17.0566C87.7995 16.9707 87.8174 16.9062 87.8389 16.8633C87.846 16.8561 87.8568 16.849 87.8711 16.8418L87.9141 16.7988C87.9714 16.7559 88.0394 16.7021 88.1182 16.6377C88.2041 16.5661 88.2829 16.4909 88.3545 16.4121C88.4333 16.3262 88.4977 16.2402 88.5479 16.1543C88.6051 16.0684 88.6338 15.986 88.6338 15.9072C88.6338 15.7712 88.5801 15.6602 88.4727 15.5742C88.3724 15.4883 88.29 15.3952 88.2256 15.2949C88.2184 15.2806 88.2041 15.252 88.1826 15.209C88.1683 15.1589 88.1504 15.1087 88.1289 15.0586C88.1146 15.0085 88.0967 14.9619 88.0752 14.9189C88.0609 14.876 88.0501 14.8473 88.043 14.833C87.9928 14.7327 87.9463 14.6719 87.9033 14.6504C87.8675 14.6289 87.8031 14.5788 87.71 14.5C87.6885 14.4857 87.6562 14.4606 87.6133 14.4248C87.5703 14.3818 87.5238 14.3353 87.4736 14.2852C87.4235 14.235 87.377 14.1885 87.334 14.1455C87.291 14.1025 87.2624 14.0703 87.248 14.0488C87.248 14.0417 87.2266 14.0094 87.1836 13.9521C87.1478 13.8949 87.1227 13.859 87.1084 13.8447L86.9258 13.6406L86.8506 13.2754C86.8506 13.2611 86.8327 13.2253 86.7969 13.168C86.7611 13.1107 86.736 13.0785 86.7217 13.0713C86.7217 13.057 86.7109 13.0247 86.6895 12.9746C86.6751 12.9173 86.668 12.8815 86.668 12.8672C86.6322 12.7812 86.5964 12.7168 86.5605 12.6738C86.5247 12.6237 86.4889 12.5843 86.4531 12.5557C86.4173 12.5199 86.3779 12.4876 86.335 12.459C86.2992 12.4303 86.2562 12.391 86.2061 12.3408C86.1917 12.3337 86.1559 12.305 86.0986 12.2549C86.0485 12.2048 85.9948 12.151 85.9375 12.0938C85.8802 12.0365 85.8265 11.9827 85.7764 11.9326C85.7262 11.8753 85.694 11.8395 85.6797 11.8252C85.6367 11.7822 85.583 11.7536 85.5186 11.7393C85.4541 11.7178 85.3896 11.7035 85.3252 11.6963C85.2607 11.682 85.1963 11.6676 85.1318 11.6533C85.0674 11.639 85.0101 11.6104 84.96 11.5674C84.9313 11.5459 84.8919 11.5101 84.8418 11.46C84.7917 11.4027 84.7666 11.3704 84.7666 11.3633V10.8369L84.7881 10.8154C84.8096 10.7939 84.8239 10.7832 84.8311 10.7832L85.0352 10.6543C85.0423 10.6328 85.0602 10.6149 85.0889 10.6006C85.1247 10.5863 85.1497 10.5791 85.1641 10.5791C85.3288 10.5648 85.4971 10.554 85.6689 10.5469C85.848 10.5397 86.027 10.5361 86.2061 10.5361C86.3851 10.5361 86.557 10.5397 86.7217 10.5469C86.8936 10.5469 87.069 10.5576 87.248 10.5791C87.2767 10.5934 87.334 10.6113 87.4199 10.6328C87.5059 10.6471 87.5596 10.6543 87.5811 10.6543C87.6025 10.6543 87.6598 10.6579 87.7529 10.665C87.8532 10.665 87.957 10.6686 88.0645 10.6758C88.179 10.6829 88.2829 10.6901 88.376 10.6973C88.4762 10.6973 88.5371 10.7008 88.5586 10.708C88.7806 10.7295 88.8916 10.8405 88.8916 11.041C88.8916 11.1413 88.863 11.2308 88.8057 11.3096C88.7484 11.3812 88.6875 11.4528 88.623 11.5244C88.5586 11.596 88.4977 11.6712 88.4404 11.75C88.3831 11.8288 88.3545 11.9219 88.3545 12.0293C88.3545 12.151 88.3796 12.2764 88.4297 12.4053C88.4798 12.527 88.5443 12.638 88.623 12.7383L89.0312 13.125C89.0312 13.1322 89.0312 13.1572 89.0312 13.2002C89.0384 13.236 89.0456 13.279 89.0527 13.3291C89.0599 13.3721 89.0635 13.415 89.0635 13.458C89.0706 13.4938 89.0778 13.5189 89.085 13.5332L89.3428 13.791C89.3571 13.791 89.375 13.7946 89.3965 13.8018C89.418 13.8089 89.4574 13.8125 89.5146 13.8125C89.5433 13.8125 89.5755 13.8125 89.6113 13.8125C89.6471 13.8125 89.6865 13.8053 89.7295 13.791C89.7367 13.7839 89.7581 13.7767 89.7939 13.7695C89.8298 13.7624 89.8656 13.7588 89.9014 13.7588C89.9443 13.7516 89.9801 13.7445 90.0088 13.7373C90.0446 13.7301 90.0625 13.723 90.0625 13.7158C90.0768 13.7158 90.0983 13.7015 90.127 13.6729C90.1628 13.637 90.1878 13.6084 90.2021 13.5869L90.3311 13.2002C90.3955 13.0355 90.4671 12.8958 90.5459 12.7812C90.6247 12.6595 90.6641 12.502 90.6641 12.3086V12.083L90.5889 11.9541V11.5674C90.5889 11.5459 90.5602 11.5208 90.5029 11.4922C90.4528 11.4635 90.3919 11.4242 90.3203 11.374C90.2559 11.3239 90.195 11.2594 90.1377 11.1807C90.0876 11.0947 90.0625 10.9873 90.0625 10.8584C90.0625 10.8298 90.0661 10.7975 90.0732 10.7617C90.0804 10.7259 90.1019 10.708 90.1377 10.708C90.2738 10.7223 90.4098 10.7295 90.5459 10.7295C90.682 10.7295 90.8145 10.7295 90.9434 10.7295C91.0723 10.7295 91.2012 10.7295 91.3301 10.7295C91.459 10.7295 91.5843 10.7223 91.7061 10.708C91.8636 10.6436 92.0426 10.6077 92.2432 10.6006C92.4508 10.5863 92.6442 10.5791 92.8232 10.5791C92.8304 10.5863 92.8555 10.597 92.8984 10.6113C92.9414 10.6257 92.988 10.64 93.0381 10.6543C93.0954 10.6686 93.1455 10.6829 93.1885 10.6973C93.2386 10.7044 93.2708 10.708 93.2852 10.708L93.4678 10.6865L93.6719 10.708C93.6862 10.708 93.7184 10.7367 93.7686 10.7939C93.8187 10.8441 93.8473 10.8835 93.8545 10.9121C93.8688 10.9121 93.876 10.93 93.876 10.9658C93.876 11.0732 93.833 11.1592 93.7471 11.2236C93.6611 11.2881 93.5573 11.3418 93.4355 11.3848C93.321 11.4277 93.2028 11.4671 93.0811 11.5029C92.9665 11.5316 92.8805 11.571 92.8232 11.6211C92.5225 11.8503 92.2253 12.0938 91.9316 12.3516C91.6452 12.6094 91.3945 12.8923 91.1797 13.2002C91.0866 13.3291 91.0078 13.4867 90.9434 13.6729C90.8861 13.8519 90.8109 13.9987 90.7178 14.1133C90.7106 14.1204 90.6927 14.1383 90.6641 14.167C90.6426 14.1885 90.6175 14.2171 90.5889 14.2529C90.5602 14.2816 90.5316 14.3102 90.5029 14.3389C90.4814 14.3675 90.4671 14.3854 90.46 14.3926C90.4313 14.4212 90.4134 14.4463 90.4062 14.4678C90.4062 14.4821 90.4062 14.5036 90.4062 14.5322V14.833L90.46 14.9619C90.4743 15.0192 90.485 15.0944 90.4922 15.1875C90.5065 15.2806 90.5387 15.3594 90.5889 15.4238C90.596 15.431 90.6104 15.4489 90.6318 15.4775C90.6605 15.499 90.6891 15.5241 90.7178 15.5527C90.7464 15.5814 90.7715 15.61 90.793 15.6387C90.8216 15.6673 90.8395 15.6852 90.8467 15.6924C90.8682 15.7067 90.904 15.7497 90.9541 15.8213C91.0042 15.8857 91.0365 15.9287 91.0508 15.9502L91.2334 16.3369C91.2406 16.3512 91.2585 16.3763 91.2871 16.4121C91.3158 16.4408 91.3444 16.473 91.373 16.5088C91.4017 16.5446 91.4268 16.5804 91.4482 16.6162C91.4769 16.6449 91.4948 16.6628 91.502 16.6699C91.5592 16.7487 91.5986 16.849 91.6201 16.9707C91.6488 17.0924 91.6953 17.1855 91.7598 17.25C91.7669 17.2572 91.7812 17.2715 91.8027 17.293C91.8314 17.3145 91.86 17.3359 91.8887 17.3574C91.9173 17.3789 91.9424 17.4004 91.9639 17.4219C91.9925 17.4362 92.0104 17.4469 92.0176 17.4541C92.0677 17.4899 92.1035 17.5329 92.125 17.583C92.1465 17.626 92.1608 17.6725 92.168 17.7227C92.1823 17.7656 92.193 17.8086 92.2002 17.8516C92.2145 17.8945 92.2396 17.9339 92.2754 17.9697C92.3112 17.9912 92.3506 18.0163 92.3936 18.0449L92.4795 18.1094C92.5296 18.1452 92.5618 18.1738 92.5762 18.1953C92.5977 18.2096 92.6156 18.2275 92.6299 18.249C92.6442 18.2705 92.6585 18.2956 92.6729 18.3242C92.6872 18.3529 92.7122 18.3923 92.748 18.4424C92.8411 18.5426 92.945 18.6357 93.0596 18.7217C93.1813 18.8005 93.2923 18.8792 93.3926 18.958C93.4141 18.9723 93.4391 18.9974 93.4678 19.0332C93.5036 19.0618 93.5286 19.0798 93.543 19.0869C93.543 19.1012 93.5465 19.1263 93.5537 19.1621C93.568 19.1908 93.5824 19.2087 93.5967 19.2158C93.6253 19.2373 93.679 19.2767 93.7578 19.334C93.8438 19.3841 93.901 19.4128 93.9297 19.4199C93.9297 19.4342 93.9333 19.4486 93.9404 19.4629C93.9404 19.4772 93.9404 19.488 93.9404 19.4951C93.9476 19.5023 93.9512 19.5094 93.9512 19.5166C93.9512 19.5811 93.9225 19.6348 93.8652 19.6777C93.8079 19.7135 93.7399 19.7422 93.6611 19.7637C93.5895 19.7852 93.5107 19.7995 93.4248 19.8066C93.346 19.8138 93.2816 19.8174 93.2314 19.8174L92.4258 19.7422C92.304 19.7422 92.1966 19.7565 92.1035 19.7852C92.0104 19.8066 91.9066 19.8174 91.792 19.8174C91.7132 19.8174 91.6559 19.8102 91.6201 19.7959C91.5843 19.7816 91.5485 19.7673 91.5127 19.7529C91.484 19.7386 91.4447 19.7243 91.3945 19.71C91.3516 19.6956 91.2799 19.6885 91.1797 19.6885L90.1592 19.7637C90.0804 19.7637 90.0195 19.735 89.9766 19.6777C89.9408 19.6204 89.9229 19.556 89.9229 19.4844C89.9229 19.3841 89.9551 19.3053 90.0195 19.248C90.084 19.1908 90.152 19.1406 90.2236 19.0977C90.3024 19.0475 90.374 18.9974 90.4385 18.9473C90.5029 18.89 90.5352 18.8184 90.5352 18.7324C90.5352 18.6322 90.4922 18.5247 90.4062 18.4102C90.3275 18.2884 90.2594 18.1882 90.2021 18.1094C90.195 18.1022 90.1807 18.0807 90.1592 18.0449C90.1449 18.0091 90.127 17.9733 90.1055 17.9375C90.084 17.9017 90.0625 17.8695 90.041 17.8408C90.0195 17.8122 90.0052 17.7943 89.998 17.7871C89.9909 17.7728 89.9694 17.7513 89.9336 17.7227C89.9049 17.6868 89.8727 17.651 89.8369 17.6152C89.8011 17.5794 89.7653 17.5472 89.7295 17.5186C89.7008 17.4827 89.6829 17.4613 89.6758 17.4541C89.6543 17.4111 89.6436 17.3646 89.6436 17.3145C89.6436 17.2572 89.64 17.2035 89.6328 17.1533C89.6257 17.1032 89.6113 17.0602 89.5898 17.0244C89.5755 16.9814 89.5361 16.9528 89.4717 16.9385L89.1924 16.917C89.1709 16.917 89.1315 16.917 89.0742 16.917C89.0241 16.917 88.9668 16.9206 88.9023 16.9277C88.8451 16.9349 88.7878 16.9421 88.7305 16.9492C88.6803 16.9564 88.6445 16.9707 88.623 16.9922V17.1963C88.6016 17.3037 88.555 17.4004 88.4834 17.4863C88.4189 17.5723 88.3509 17.6582 88.2793 17.7441C88.2148 17.8301 88.154 17.9232 88.0967 18.0234C88.0465 18.1165 88.0215 18.2311 88.0215 18.3672C88.0215 18.3743 88.0215 18.3851 88.0215 18.3994C88.0215 18.4137 88.0286 18.4281 88.043 18.4424C88.043 18.4495 88.0501 18.4889 88.0645 18.5605C88.0859 18.6322 88.0967 18.6787 88.0967 18.7002V18.958C88.0967 18.9723 88.1038 18.9867 88.1182 19.001C88.1396 19.0081 88.1576 19.0117 88.1719 19.0117C88.2148 19.0475 88.2686 19.0798 88.333 19.1084C88.4046 19.1299 88.4727 19.1585 88.5371 19.1943C88.6016 19.223 88.6553 19.2588 88.6982 19.3018C88.7412 19.3447 88.7627 19.3984 88.7627 19.4629C88.7627 19.5632 88.7269 19.6419 88.6553 19.6992C88.5908 19.7565 88.5085 19.7995 88.4082 19.8281C88.3151 19.8496 88.2148 19.8639 88.1074 19.8711C88.0072 19.8711 87.9176 19.8711 87.8389 19.8711H87.5811C87.137 19.8568 86.6859 19.846 86.2275 19.8389C85.7764 19.8317 85.3359 19.7995 84.9062 19.7422ZM100.203 19.6455V19.5918C100.225 19.5703 100.282 19.5417 100.375 19.5059C100.468 19.4629 100.579 19.4199 100.708 19.377C100.837 19.334 100.973 19.291 101.116 19.248C101.259 19.2051 101.396 19.1657 101.524 19.1299C101.653 19.0941 101.761 19.0618 101.847 19.0332C101.94 19.0046 101.993 18.9867 102.008 18.9795C102.137 18.8005 102.233 18.6178 102.298 18.4316C102.362 18.2383 102.409 18.0449 102.438 17.8516C102.466 17.651 102.484 17.4505 102.491 17.25C102.506 17.0423 102.523 16.8311 102.545 16.6162C102.595 16.4515 102.634 16.2939 102.663 16.1436C102.699 15.9932 102.717 15.8356 102.717 15.6709C102.717 15.5492 102.688 15.4417 102.631 15.3486C102.574 15.2555 102.545 15.1517 102.545 15.0371C102.545 14.8509 102.574 14.6647 102.631 14.4785C102.688 14.2852 102.717 14.1061 102.717 13.9414C102.717 13.8841 102.713 13.8376 102.706 13.8018C102.699 13.7588 102.688 13.7194 102.674 13.6836C102.667 13.6478 102.66 13.612 102.652 13.5762C102.645 13.5404 102.642 13.4938 102.642 13.4365C102.642 13.3649 102.649 13.304 102.663 13.2539C102.685 13.1966 102.706 13.1465 102.728 13.1035C102.756 13.0534 102.778 13.0068 102.792 12.9639C102.813 12.9137 102.824 12.86 102.824 12.8027L102.545 11.707C102.545 11.5996 102.574 11.5101 102.631 11.4385C102.688 11.3597 102.717 11.2594 102.717 11.1377L102.642 10.8154V10.1279C102.642 10.1064 102.634 10.0778 102.62 10.042C102.606 9.99902 102.588 9.95605 102.566 9.91309C102.545 9.87012 102.527 9.83073 102.513 9.79492C102.498 9.75911 102.491 9.73405 102.491 9.71973C102.491 9.53353 102.509 9.36882 102.545 9.22559C102.581 9.08236 102.599 8.93913 102.599 8.7959L102.545 7.08789C102.509 7.01628 102.47 6.95898 102.427 6.91602C102.384 6.87305 102.337 6.83724 102.287 6.80859C102.237 6.77995 102.18 6.7513 102.115 6.72266C102.058 6.68685 101.997 6.6403 101.933 6.58301C101.811 6.40397 101.65 6.28223 101.449 6.21777C101.249 6.15332 101.052 6.10319 100.858 6.06738C100.665 6.02441 100.497 5.9707 100.354 5.90625C100.217 5.8418 100.149 5.72005 100.149 5.54102C100.149 5.41211 100.2 5.31543 100.3 5.25098C100.407 5.17936 100.533 5.12923 100.676 5.10059C100.819 5.06478 100.962 5.04329 101.105 5.03613C101.249 5.02897 101.363 5.02539 101.449 5.02539H101.836C101.965 5.02539 102.104 5.02897 102.255 5.03613C102.405 5.03613 102.545 5.04329 102.674 5.05762C102.81 5.06478 102.924 5.0791 103.018 5.10059C103.111 5.11491 103.164 5.13281 103.179 5.1543L106.648 5.02539L107.529 5.0791L107.97 5.02539C108.228 5.13281 108.482 5.21875 108.732 5.2832C108.983 5.34766 109.223 5.42285 109.452 5.50879C109.688 5.59473 109.91 5.70573 110.118 5.8418C110.333 5.9707 110.526 6.1569 110.698 6.40039C110.856 6.62956 110.988 6.83008 111.096 7.00195C111.21 7.16667 111.303 7.33496 111.375 7.50684C111.447 7.67155 111.497 7.85059 111.525 8.04395C111.561 8.2373 111.579 8.47005 111.579 8.74219C111.579 8.94987 111.554 9.18262 111.504 9.44043C111.454 9.69108 111.379 9.92025 111.278 10.1279C111.2 10.2497 111.117 10.3499 111.031 10.4287C110.952 10.5075 110.867 10.5791 110.773 10.6436C110.68 10.708 110.58 10.7689 110.473 10.8262C110.372 10.8835 110.265 10.9479 110.15 11.0195L110.032 11.2451C109.982 11.3096 109.889 11.3561 109.753 11.3848C109.624 11.4134 109.492 11.4456 109.355 11.4814C109.219 11.5173 109.098 11.5674 108.99 11.6318C108.883 11.6963 108.829 11.7965 108.829 11.9326C108.829 11.9971 108.894 12.0544 109.022 12.1045C109.151 12.1546 109.298 12.2012 109.463 12.2441C109.635 12.2871 109.799 12.3265 109.957 12.3623C110.122 12.3981 110.24 12.4303 110.312 12.459C110.519 12.5664 110.702 12.6774 110.859 12.792C111.024 12.8994 111.2 13.0104 111.386 13.125L111.74 13.3613C111.84 13.5547 111.959 13.7516 112.095 13.9521C112.231 14.1527 112.36 14.3604 112.481 14.5752C112.61 14.7829 112.718 15.0013 112.804 15.2305C112.89 15.4525 112.933 15.6852 112.933 15.9287C112.933 16.1937 112.922 16.4443 112.9 16.6807C112.886 16.917 112.829 17.1247 112.729 17.3037C112.693 17.3682 112.625 17.4613 112.524 17.583C112.424 17.6976 112.306 17.8301 112.17 17.9805C112.041 18.1237 111.898 18.2741 111.74 18.4316C111.59 18.5892 111.443 18.736 111.3 18.8721C111.157 19.001 111.021 19.1156 110.892 19.2158C110.77 19.3089 110.67 19.3662 110.591 19.3877C110.34 19.3877 110.168 19.4056 110.075 19.4414C109.982 19.4701 109.918 19.4844 109.882 19.4844C109.502 19.6061 109.159 19.7064 108.851 19.7852C108.543 19.8639 108.199 19.9176 107.819 19.9463L107.336 20.1074C107.143 20.0358 106.946 20 106.745 20C106.502 20 106.283 20.0358 106.09 20.1074C105.674 20.0716 105.266 20.0394 104.865 20.0107C104.464 19.9821 104.045 19.9678 103.608 19.9678C103.265 19.9678 102.914 20 102.556 20.0645C102.205 20.1361 101.836 20.1719 101.449 20.1719C101.413 20.1719 101.327 20.1611 101.191 20.1396C101.062 20.1253 100.923 20.0967 100.772 20.0537C100.629 20.0107 100.497 19.957 100.375 19.8926C100.26 19.821 100.203 19.7386 100.203 19.6455ZM104.704 16.7451L104.854 17.25C104.876 17.5293 104.89 17.7477 104.897 17.9053C104.905 18.0557 104.923 18.1774 104.951 18.2705C104.987 18.3564 105.048 18.4316 105.134 18.4961C105.22 18.5534 105.356 18.6286 105.542 18.7217C105.614 18.7575 105.671 18.7897 105.714 18.8184C105.757 18.847 105.803 18.8757 105.854 18.9043C106.004 18.9688 106.147 19.0439 106.283 19.1299C106.426 19.2158 106.591 19.2588 106.777 19.2588C106.913 19.2588 107.021 19.2373 107.1 19.1943C107.186 19.1514 107.286 19.1299 107.4 19.1299L107.895 19.1836C107.98 19.1836 108.074 19.1621 108.174 19.1191C108.281 19.0762 108.385 19.0225 108.485 18.958C108.586 18.8936 108.679 18.8255 108.765 18.7539C108.858 18.6823 108.933 18.6143 108.99 18.5498C109.026 18.5355 109.076 18.4997 109.141 18.4424C109.212 18.3779 109.284 18.3099 109.355 18.2383C109.427 18.1667 109.492 18.0986 109.549 18.0342C109.613 17.9626 109.663 17.9124 109.699 17.8838C109.728 17.7835 109.771 17.6868 109.828 17.5938C109.893 17.5007 109.95 17.4076 110 17.3145C110.057 17.2142 110.107 17.1139 110.15 17.0137C110.193 16.9062 110.215 16.7917 110.215 16.6699C110.215 16.3548 110.201 16.0397 110.172 15.7246C110.15 15.4023 110.1 15.0944 110.021 14.8008C109.943 14.5 109.828 14.2171 109.678 13.9521C109.535 13.68 109.338 13.4401 109.087 13.2324C108.858 13.0677 108.632 12.9352 108.41 12.835C108.195 12.7275 107.948 12.6559 107.669 12.6201H107.121C106.827 12.5915 106.562 12.5485 106.326 12.4912C106.09 12.4268 105.85 12.3945 105.606 12.3945L104.983 12.459C104.969 12.4876 104.948 12.5306 104.919 12.5879C104.897 12.638 104.872 12.6953 104.844 12.7598C104.822 12.8171 104.797 12.8708 104.769 12.9209C104.747 12.971 104.726 13.0068 104.704 13.0283C104.704 13.1429 104.715 13.236 104.736 13.3076C104.765 13.3721 104.779 13.4473 104.779 13.5332L104.629 15.0371C104.629 15.2305 104.654 15.4382 104.704 15.6602C104.754 15.8822 104.779 16.1149 104.779 16.3584L104.704 16.7451ZM104.919 11.8252L105.059 12.0078L105.671 11.8037C105.922 11.7751 106.183 11.75 106.455 11.7285C106.734 11.707 107.003 11.6963 107.261 11.6963C107.397 11.6963 107.49 11.6963 107.54 11.6963C107.59 11.6963 107.633 11.6999 107.669 11.707C107.877 11.5352 108.063 11.3418 108.228 11.127C108.399 10.9049 108.55 10.6758 108.679 10.4395C108.815 10.2031 108.937 9.95964 109.044 9.70898C109.151 9.45833 109.252 9.21484 109.345 8.97852V8.7959L109.194 8.5166C109.123 8.25879 109.033 8.00098 108.926 7.74316C108.818 7.48535 108.682 7.24902 108.518 7.03418C108.36 6.81934 108.17 6.6403 107.948 6.49707C107.733 6.34668 107.479 6.25716 107.186 6.22852C107.171 6.22852 107.139 6.22493 107.089 6.21777C107.046 6.21061 106.999 6.20703 106.949 6.20703C106.899 6.19987 106.853 6.19271 106.81 6.18555C106.767 6.17839 106.738 6.1748 106.724 6.1748C106.631 6.16048 106.541 6.13184 106.455 6.08887C106.376 6.0459 106.298 5.99935 106.219 5.94922C106.14 5.89909 106.054 5.85612 105.961 5.82031C105.875 5.78451 105.782 5.7666 105.682 5.7666C105.632 5.7666 105.556 5.79167 105.456 5.8418C105.363 5.89193 105.266 5.95638 105.166 6.03516C105.073 6.10677 104.987 6.18197 104.908 6.26074C104.837 6.33952 104.794 6.41113 104.779 6.47559V6.91602L104.854 7.77539C104.854 7.88997 104.84 8.01172 104.812 8.14062C104.79 8.26237 104.765 8.3877 104.736 8.5166C104.715 8.63835 104.69 8.76009 104.661 8.88184C104.64 8.99642 104.629 9.10384 104.629 9.2041C104.629 9.6696 104.668 10.1208 104.747 10.5576C104.826 10.9945 104.883 11.417 104.919 11.8252ZM114.78 19.8711C114.787 19.8353 114.812 19.7637 114.855 19.6562C114.906 19.5417 114.949 19.445 114.984 19.3662C115.013 19.3232 115.067 19.2767 115.146 19.2266C115.231 19.1764 115.321 19.1263 115.414 19.0762C115.514 19.026 115.611 18.9795 115.704 18.9365C115.797 18.8864 115.865 18.8434 115.908 18.8076C116.03 18.7145 116.155 18.6322 116.284 18.5605C116.42 18.4818 116.556 18.403 116.692 18.3242C116.828 18.2454 116.961 18.1631 117.09 18.0771C117.226 17.9912 117.351 17.8945 117.466 17.7871C117.688 17.5938 117.921 17.3574 118.164 17.0781C118.408 16.7988 118.63 16.5016 118.83 16.1865C119.031 15.8643 119.195 15.5348 119.324 15.1982C119.453 14.8617 119.518 14.5358 119.518 14.2207C119.518 14.0703 119.482 13.9235 119.41 13.7803C119.339 13.637 119.242 13.5117 119.12 13.4043C119.006 13.2897 118.869 13.1966 118.712 13.125C118.562 13.0534 118.4 13.0176 118.229 13.0176L117.82 13.1572H117.412C117.348 13.1572 117.28 13.1644 117.208 13.1787C117.136 13.1859 117.068 13.2288 117.004 13.3076C116.896 13.3864 116.8 13.4938 116.714 13.6299C116.628 13.7588 116.538 13.8841 116.445 14.0059C116.359 14.1276 116.263 14.235 116.155 14.3281C116.048 14.4141 115.915 14.457 115.758 14.457C115.679 14.457 115.6 14.4535 115.521 14.4463C115.443 14.432 115.378 14.3926 115.328 14.3281V14.0166C115.328 13.8232 115.342 13.68 115.371 13.5869C115.407 13.4938 115.453 13.4186 115.511 13.3613C115.568 13.304 115.636 13.2503 115.715 13.2002C115.794 13.1429 115.876 13.0498 115.962 12.9209L116.112 12.7383C116.277 12.5234 116.449 12.3193 116.628 12.126C116.814 11.9326 117.05 11.793 117.337 11.707L118.153 11.5996L118.68 11.4922C118.852 11.4922 119.052 11.5065 119.281 11.5352C119.518 11.5638 119.754 11.6104 119.99 11.6748C120.234 11.7393 120.463 11.8252 120.678 11.9326C120.893 12.04 121.068 12.1725 121.204 12.3301C121.254 12.3945 121.297 12.4661 121.333 12.5449C121.369 12.6237 121.401 12.6667 121.43 12.6738L121.763 13.2217V14.457C121.763 14.5931 121.713 14.7184 121.612 14.833C121.519 14.9404 121.433 15.0443 121.354 15.1445C121.347 15.1517 121.34 15.166 121.333 15.1875C121.326 15.209 121.312 15.2484 121.29 15.3057C121.269 15.363 121.24 15.4417 121.204 15.542C121.168 15.6423 121.118 15.7712 121.054 15.9287C121.047 15.943 121.039 15.9538 121.032 15.9609C121.018 15.9753 121.007 15.9824 121 15.9824C120.921 16.0326 120.864 16.0863 120.828 16.1436C120.792 16.2008 120.76 16.2617 120.731 16.3262C120.71 16.3835 120.685 16.4443 120.656 16.5088C120.628 16.5661 120.581 16.6198 120.517 16.6699C120.438 16.7344 120.363 16.7845 120.291 16.8203C120.219 16.849 120.144 16.874 120.065 16.8955C119.994 16.9098 119.919 16.9242 119.84 16.9385C119.768 16.9528 119.697 16.9814 119.625 17.0244C119.618 17.0244 119.589 17.0459 119.539 17.0889C119.496 17.1247 119.446 17.1676 119.389 17.2178C119.339 17.2679 119.288 17.3145 119.238 17.3574C119.188 17.4004 119.156 17.4255 119.142 17.4326C119.134 17.4326 119.102 17.4505 119.045 17.4863C118.988 17.5221 118.927 17.5651 118.862 17.6152C118.798 17.6654 118.737 17.7119 118.68 17.7549C118.622 17.7979 118.59 17.8229 118.583 17.8301C118.547 17.8587 118.497 17.9053 118.433 17.9697C118.368 18.0342 118.304 18.1022 118.239 18.1738C118.182 18.2454 118.132 18.3171 118.089 18.3887C118.046 18.4603 118.024 18.514 118.024 18.5498C118.024 18.5856 118.046 18.6035 118.089 18.6035H118.433C118.619 18.6035 118.791 18.6143 118.948 18.6357C119.106 18.6501 119.256 18.6895 119.399 18.7539H119.947C120.327 18.7539 120.71 18.7253 121.097 18.668C121.483 18.6107 121.849 18.5033 122.192 18.3457C122.257 18.3099 122.293 18.2669 122.3 18.2168C122.307 18.1667 122.325 18.1165 122.354 18.0664C122.454 17.9447 122.579 17.8372 122.729 17.7441C122.88 17.651 123.03 17.5651 123.181 17.4863L123.342 18.0342C123.342 18.1559 123.313 18.2812 123.256 18.4102C123.206 18.5319 123.141 18.6644 123.062 18.8076C123.041 18.8577 123.02 18.9473 122.998 19.0762C122.977 19.2051 122.944 19.3376 122.901 19.4736C122.858 19.6097 122.801 19.7314 122.729 19.8389C122.658 19.9463 122.565 20 122.45 20L122.268 20.0215C121.988 20.0573 121.713 20.0967 121.44 20.1396C121.175 20.1826 120.907 20.2041 120.635 20.2041C120.549 20.2041 120.463 20.1898 120.377 20.1611C120.298 20.1325 120.219 20.1003 120.141 20.0645C120.062 20.0286 119.983 19.9964 119.904 19.9678C119.826 19.9391 119.747 19.9248 119.668 19.9248C119.518 19.9248 119.349 19.9355 119.163 19.957C118.984 19.9785 118.834 20.0036 118.712 20.0322C118.683 20.0322 118.637 20.0501 118.572 20.0859C118.515 20.1289 118.468 20.1683 118.433 20.2041L117.455 19.9248C117.369 19.9248 117.283 19.9499 117.197 20C117.118 20.0501 117.029 20.0824 116.929 20.0967C116.793 20.111 116.664 20.1217 116.542 20.1289C116.427 20.1432 116.306 20.154 116.177 20.1611C116.055 20.1755 115.926 20.1862 115.79 20.1934C115.661 20.2005 115.514 20.2041 115.35 20.2041C115.228 20.2041 115.103 20.1826 114.974 20.1396C114.845 20.1038 114.78 20.0251 114.78 19.9033V19.8711ZM125.018 19.6455V19.5918C125.039 19.5703 125.096 19.5417 125.189 19.5059C125.283 19.4629 125.394 19.4199 125.522 19.377C125.651 19.334 125.787 19.291 125.931 19.248C126.074 19.2051 126.21 19.1657 126.339 19.1299C126.468 19.0941 126.575 19.0618 126.661 19.0332C126.754 19.0046 126.808 18.9867 126.822 18.9795C126.951 18.8005 127.048 18.6178 127.112 18.4316C127.177 18.2383 127.223 18.0449 127.252 17.8516C127.281 17.651 127.299 17.4505 127.306 17.25C127.32 17.0423 127.338 16.8311 127.359 16.6162C127.41 16.4515 127.449 16.2939 127.478 16.1436C127.513 15.9932 127.531 15.8356 127.531 15.6709C127.531 15.5492 127.503 15.4417 127.445 15.3486C127.388 15.2555 127.359 15.1517 127.359 15.0371C127.359 14.8509 127.388 14.6647 127.445 14.4785C127.503 14.2852 127.531 14.1061 127.531 13.9414C127.531 13.8841 127.528 13.8376 127.521 13.8018C127.513 13.7588 127.503 13.7194 127.488 13.6836C127.481 13.6478 127.474 13.612 127.467 13.5762C127.46 13.5404 127.456 13.4938 127.456 13.4365C127.456 13.3649 127.463 13.304 127.478 13.2539C127.499 13.1966 127.521 13.1465 127.542 13.1035C127.571 13.0534 127.592 13.0068 127.606 12.9639C127.628 12.9137 127.639 12.86 127.639 12.8027L127.359 11.707C127.359 11.5996 127.388 11.5101 127.445 11.4385C127.503 11.3597 127.531 11.2594 127.531 11.1377L127.456 10.8154V10.1279C127.456 10.1064 127.449 10.0778 127.435 10.042C127.42 9.99902 127.402 9.95605 127.381 9.91309C127.359 9.87012 127.341 9.83073 127.327 9.79492C127.313 9.75911 127.306 9.73405 127.306 9.71973C127.306 9.53353 127.324 9.36882 127.359 9.22559C127.395 9.08236 127.413 8.93913 127.413 8.7959L127.359 7.08789C127.324 7.01628 127.284 6.95898 127.241 6.91602C127.198 6.87305 127.152 6.83724 127.102 6.80859C127.051 6.77995 126.994 6.7513 126.93 6.72266C126.872 6.68685 126.812 6.6403 126.747 6.58301C126.625 6.40397 126.464 6.28223 126.264 6.21777C126.063 6.15332 125.866 6.10319 125.673 6.06738C125.479 6.02441 125.311 5.9707 125.168 5.90625C125.032 5.8418 124.964 5.72005 124.964 5.54102C124.964 5.41211 125.014 5.31543 125.114 5.25098C125.222 5.17936 125.347 5.12923 125.49 5.10059C125.633 5.06478 125.777 5.04329 125.92 5.03613C126.063 5.02897 126.178 5.02539 126.264 5.02539H126.65C126.779 5.02539 126.919 5.02897 127.069 5.03613C127.22 5.03613 127.359 5.04329 127.488 5.05762C127.624 5.06478 127.739 5.0791 127.832 5.10059C127.925 5.11491 127.979 5.13281 127.993 5.1543L131.463 5.02539L132.344 5.0791L132.784 5.02539C133.042 5.13281 133.296 5.21875 133.547 5.2832C133.798 5.34766 134.037 5.42285 134.267 5.50879C134.503 5.59473 134.725 5.70573 134.933 5.8418C135.147 5.9707 135.341 6.1569 135.513 6.40039C135.67 6.62956 135.803 6.83008 135.91 7.00195C136.025 7.16667 136.118 7.33496 136.189 7.50684C136.261 7.67155 136.311 7.85059 136.34 8.04395C136.376 8.2373 136.394 8.47005 136.394 8.74219C136.394 8.94987 136.368 9.18262 136.318 9.44043C136.268 9.69108 136.193 9.92025 136.093 10.1279C136.014 10.2497 135.932 10.3499 135.846 10.4287C135.767 10.5075 135.681 10.5791 135.588 10.6436C135.495 10.708 135.395 10.7689 135.287 10.8262C135.187 10.8835 135.079 10.9479 134.965 11.0195L134.847 11.2451C134.797 11.3096 134.703 11.3561 134.567 11.3848C134.438 11.4134 134.306 11.4456 134.17 11.4814C134.034 11.5173 133.912 11.5674 133.805 11.6318C133.697 11.6963 133.644 11.7965 133.644 11.9326C133.644 11.9971 133.708 12.0544 133.837 12.1045C133.966 12.1546 134.113 12.2012 134.277 12.2441C134.449 12.2871 134.614 12.3265 134.771 12.3623C134.936 12.3981 135.054 12.4303 135.126 12.459C135.334 12.5664 135.516 12.6774 135.674 12.792C135.839 12.8994 136.014 13.0104 136.2 13.125L136.555 13.3613C136.655 13.5547 136.773 13.7516 136.909 13.9521C137.045 14.1527 137.174 14.3604 137.296 14.5752C137.425 14.7829 137.532 15.0013 137.618 15.2305C137.704 15.4525 137.747 15.6852 137.747 15.9287C137.747 16.1937 137.736 16.4443 137.715 16.6807C137.701 16.917 137.643 17.1247 137.543 17.3037C137.507 17.3682 137.439 17.4613 137.339 17.583C137.239 17.6976 137.12 17.8301 136.984 17.9805C136.855 18.1237 136.712 18.2741 136.555 18.4316C136.404 18.5892 136.257 18.736 136.114 18.8721C135.971 19.001 135.835 19.1156 135.706 19.2158C135.584 19.3089 135.484 19.3662 135.405 19.3877C135.155 19.3877 134.983 19.4056 134.89 19.4414C134.797 19.4701 134.732 19.4844 134.696 19.4844C134.317 19.6061 133.973 19.7064 133.665 19.7852C133.357 19.8639 133.013 19.9176 132.634 19.9463L132.15 20.1074C131.957 20.0358 131.76 20 131.56 20C131.316 20 131.098 20.0358 130.904 20.1074C130.489 20.0716 130.081 20.0394 129.68 20.0107C129.279 19.9821 128.86 19.9678 128.423 19.9678C128.079 19.9678 127.728 20 127.37 20.0645C127.019 20.1361 126.65 20.1719 126.264 20.1719C126.228 20.1719 126.142 20.1611 126.006 20.1396C125.877 20.1253 125.737 20.0967 125.587 20.0537C125.444 20.0107 125.311 19.957 125.189 19.8926C125.075 19.821 125.018 19.7386 125.018 19.6455ZM129.519 16.7451L129.669 17.25C129.69 17.5293 129.705 17.7477 129.712 17.9053C129.719 18.0557 129.737 18.1774 129.766 18.2705C129.801 18.3564 129.862 18.4316 129.948 18.4961C130.034 18.5534 130.17 18.6286 130.356 18.7217C130.428 18.7575 130.485 18.7897 130.528 18.8184C130.571 18.847 130.618 18.8757 130.668 18.9043C130.818 18.9688 130.962 19.0439 131.098 19.1299C131.241 19.2158 131.406 19.2588 131.592 19.2588C131.728 19.2588 131.835 19.2373 131.914 19.1943C132 19.1514 132.1 19.1299 132.215 19.1299L132.709 19.1836C132.795 19.1836 132.888 19.1621 132.988 19.1191C133.096 19.0762 133.2 19.0225 133.3 18.958C133.4 18.8936 133.493 18.8255 133.579 18.7539C133.672 18.6823 133.747 18.6143 133.805 18.5498C133.84 18.5355 133.891 18.4997 133.955 18.4424C134.027 18.3779 134.098 18.3099 134.17 18.2383C134.242 18.1667 134.306 18.0986 134.363 18.0342C134.428 17.9626 134.478 17.9124 134.514 17.8838C134.542 17.7835 134.585 17.6868 134.643 17.5938C134.707 17.5007 134.764 17.4076 134.814 17.3145C134.872 17.2142 134.922 17.1139 134.965 17.0137C135.008 16.9062 135.029 16.7917 135.029 16.6699C135.029 16.3548 135.015 16.0397 134.986 15.7246C134.965 15.4023 134.915 15.0944 134.836 14.8008C134.757 14.5 134.643 14.2171 134.492 13.9521C134.349 13.68 134.152 13.4401 133.901 13.2324C133.672 13.0677 133.447 12.9352 133.225 12.835C133.01 12.7275 132.763 12.6559 132.483 12.6201H131.936C131.642 12.5915 131.377 12.5485 131.141 12.4912C130.904 12.4268 130.664 12.3945 130.421 12.3945L129.798 12.459C129.784 12.4876 129.762 12.5306 129.733 12.5879C129.712 12.638 129.687 12.6953 129.658 12.7598C129.637 12.8171 129.612 12.8708 129.583 12.9209C129.562 12.971 129.54 13.0068 129.519 13.0283C129.519 13.1429 129.529 13.236 129.551 13.3076C129.579 13.3721 129.594 13.4473 129.594 13.5332L129.443 15.0371C129.443 15.2305 129.468 15.4382 129.519 15.6602C129.569 15.8822 129.594 16.1149 129.594 16.3584L129.519 16.7451ZM129.733 11.8252L129.873 12.0078L130.485 11.8037C130.736 11.7751 130.997 11.75 131.27 11.7285C131.549 11.707 131.817 11.6963 132.075 11.6963C132.211 11.6963 132.304 11.6963 132.354 11.6963C132.405 11.6963 132.448 11.6999 132.483 11.707C132.691 11.5352 132.877 11.3418 133.042 11.127C133.214 10.9049 133.364 10.6758 133.493 10.4395C133.629 10.2031 133.751 9.95964 133.858 9.70898C133.966 9.45833 134.066 9.21484 134.159 8.97852V8.7959L134.009 8.5166C133.937 8.25879 133.848 8.00098 133.74 7.74316C133.633 7.48535 133.497 7.24902 133.332 7.03418C133.174 6.81934 132.985 6.6403 132.763 6.49707C132.548 6.34668 132.294 6.25716 132 6.22852C131.986 6.22852 131.953 6.22493 131.903 6.21777C131.86 6.21061 131.814 6.20703 131.764 6.20703C131.714 6.19987 131.667 6.19271 131.624 6.18555C131.581 6.17839 131.552 6.1748 131.538 6.1748C131.445 6.16048 131.355 6.13184 131.27 6.08887C131.191 6.0459 131.112 5.99935 131.033 5.94922C130.954 5.89909 130.868 5.85612 130.775 5.82031C130.689 5.78451 130.596 5.7666 130.496 5.7666C130.446 5.7666 130.371 5.79167 130.271 5.8418C130.177 5.89193 130.081 5.95638 129.98 6.03516C129.887 6.10677 129.801 6.18197 129.723 6.26074C129.651 6.33952 129.608 6.41113 129.594 6.47559V6.91602L129.669 7.77539C129.669 7.88997 129.655 8.01172 129.626 8.14062C129.604 8.26237 129.579 8.3877 129.551 8.5166C129.529 8.63835 129.504 8.76009 129.476 8.88184C129.454 8.99642 129.443 9.10384 129.443 9.2041C129.443 9.6696 129.483 10.1208 129.562 10.5576C129.64 10.9945 129.698 11.417 129.733 11.8252Z" fill="#1C1C1C"/>
</svg>
