<svg width="16" height="28" viewBox="0 0 16 28" fill="none" xmlns="http://www.w3.org/2000/svg">
<path d="M0.741211 19.334C0.741211 19.291 0.755534 19.248 0.78418 19.2051C0.812826 19.1549 0.845052 19.1084 0.880859 19.0654C0.923828 19.0225 0.963216 18.9831 0.999023 18.9473C1.04199 18.9115 1.07422 18.8828 1.0957 18.8613H1.375C1.53255 18.8613 1.68652 18.8577 1.83691 18.8506C1.99447 18.8363 2.14128 18.8112 2.27734 18.7754C2.42057 18.7396 2.55306 18.6787 2.6748 18.5928C2.80371 18.5068 2.92188 18.3887 3.0293 18.2383L3.3623 17.8301C3.39811 17.7943 3.4196 17.762 3.42676 17.7334C3.43392 17.6976 3.4375 17.6403 3.4375 17.5615L3.3623 16.1543C3.3623 15.9251 3.39811 15.7067 3.46973 15.499C3.5485 15.2913 3.58789 15.0872 3.58789 14.8867C3.58789 14.6647 3.5485 14.4355 3.46973 14.1992C3.39811 13.9629 3.3623 13.723 3.3623 13.4795C3.3623 13.4222 3.36947 13.3757 3.38379 13.3398C3.40527 13.2969 3.42318 13.2575 3.4375 13.2217C3.45898 13.1787 3.47689 13.1357 3.49121 13.0928C3.5127 13.0498 3.52344 12.9997 3.52344 12.9424L3.41602 12.1797L3.52344 11.1592V10.7402L3.3623 10.4502C3.34798 10.2712 3.33008 10.0993 3.30859 9.93457C3.29427 9.79134 3.27995 9.64811 3.26562 9.50488C3.2513 9.36165 3.24056 9.24349 3.2334 9.15039L3.38379 8.64551C3.38379 8.54525 3.3623 8.38053 3.31934 8.15137C3.27637 7.9222 3.21908 7.68587 3.14746 7.44238C3.07585 7.19889 2.99707 6.97689 2.91113 6.77637C2.83236 6.57585 2.75358 6.4541 2.6748 6.41113C2.55306 6.37533 2.38477 6.3431 2.16992 6.31445C1.95508 6.27865 1.74023 6.22852 1.52539 6.16406C1.31771 6.09245 1.13509 5.99935 0.977539 5.88477C0.819987 5.77018 0.741211 5.61263 0.741211 5.41211C0.741211 5.34766 0.759115 5.31543 0.794922 5.31543C0.909505 5.31543 1.00977 5.30469 1.0957 5.2832C1.18164 5.26172 1.26042 5.23665 1.33203 5.20801C1.41081 5.17936 1.486 5.1543 1.55762 5.13281C1.63639 5.11133 1.72233 5.10059 1.81543 5.10059L2.6748 5.20801L4.4043 5.03613L4.75879 5.1543L5.31738 5.03613C5.52507 5.00749 5.72917 4.98958 5.92969 4.98242C6.13021 4.9681 6.33431 4.96094 6.54199 4.96094C6.73535 4.96094 6.92871 4.9681 7.12207 4.98242C7.31543 4.98958 7.50521 5.00749 7.69141 5.03613C7.8418 5.11491 7.99219 5.16146 8.14258 5.17578C8.30013 5.18294 8.45768 5.18652 8.61523 5.18652C8.78711 5.18652 8.9554 5.19368 9.12012 5.20801C9.28483 5.22233 9.44596 5.2474 9.60352 5.2832C9.73242 5.30469 9.90072 5.36556 10.1084 5.46582C10.3161 5.55892 10.5273 5.6735 10.7422 5.80957C10.9642 5.93848 11.1647 6.08171 11.3438 6.23926C11.5299 6.39681 11.6624 6.5472 11.7412 6.69043C11.8057 6.85514 11.863 7.03418 11.9131 7.22754C11.9704 7.4209 12.0205 7.61784 12.0635 7.81836C12.1064 8.01172 12.1387 8.20866 12.1602 8.40918C12.1888 8.60254 12.2031 8.78516 12.2031 8.95703C12.2031 9.04297 12.1995 9.15755 12.1924 9.30078C12.1924 9.44401 12.1816 9.59082 12.1602 9.74121C12.1458 9.8916 12.1243 10.0312 12.0957 10.1602C12.0671 10.2891 12.0312 10.3857 11.9883 10.4502L11.666 10.8584L11.5908 11.2666C11.555 11.3525 11.4727 11.4707 11.3438 11.6211C11.222 11.7643 11.0824 11.9147 10.9248 12.0723C10.7744 12.2227 10.624 12.3623 10.4736 12.4912C10.3304 12.6201 10.2158 12.7025 10.1299 12.7383C10.0654 12.7741 9.98665 12.8171 9.89355 12.8672C9.80046 12.9102 9.70378 12.9567 9.60352 13.0068C9.50326 13.057 9.40658 13.1035 9.31348 13.1465C9.22754 13.1823 9.15592 13.2074 9.09863 13.2217L8.34668 13.2754L7.87402 13.4258C7.78809 13.4258 7.68424 13.415 7.5625 13.3936C7.44076 13.3649 7.32259 13.3255 7.20801 13.2754C7.10059 13.2253 7.00391 13.1715 6.91797 13.1143C6.83919 13.0498 6.7998 12.9782 6.7998 12.8994C6.7998 12.7848 6.875 12.6989 7.02539 12.6416L8.27148 12.3838C8.27865 12.348 8.30371 12.3193 8.34668 12.2979C8.39681 12.2692 8.43978 12.2477 8.47559 12.2334C8.72624 12.1045 8.95898 11.9362 9.17383 11.7285C9.38867 11.5137 9.57487 11.2773 9.73242 11.0195C9.88997 10.7617 10.0117 10.4896 10.0977 10.2031C10.1908 9.90951 10.2373 9.6123 10.2373 9.31152C10.223 9.25423 10.2015 9.2041 10.1729 9.16113C10.1514 9.111 10.137 9.06803 10.1299 9.03223C10.1299 9.02507 10.1263 9.0179 10.1191 9.01074C10.112 8.99642 10.1084 8.97493 10.1084 8.94629C10.0798 8.74577 10.0475 8.51302 10.0117 8.24805C9.97591 7.97591 9.9222 7.74316 9.85059 7.5498C9.82194 7.47819 9.74316 7.38151 9.61426 7.25977C9.49251 7.13086 9.34928 6.99479 9.18457 6.85156C9.02702 6.70833 8.8623 6.56868 8.69043 6.43262C8.52572 6.28939 8.38607 6.16764 8.27148 6.06738L7.31543 5.8418H6.4668C6.40234 5.8776 6.30924 5.90983 6.1875 5.93848C6.07292 5.96712 5.95833 6.00293 5.84375 6.0459C5.73633 6.08887 5.63965 6.14974 5.55371 6.22852C5.46777 6.30013 5.4248 6.40039 5.4248 6.5293V7.77539C5.47493 7.83984 5.50358 7.88997 5.51074 7.92578C5.5179 7.96159 5.52148 8.02246 5.52148 8.1084L5.4248 8.5166C5.4248 8.53092 5.43913 8.57747 5.46777 8.65625C5.50358 8.72786 5.52148 8.78158 5.52148 8.81738V9L5.32812 9.55859L5.5752 10.8047C5.5752 10.8691 5.57161 10.9229 5.56445 10.9658C5.56445 11.0016 5.55013 11.0589 5.52148 11.1377V12.792C5.55013 12.8564 5.56445 12.9173 5.56445 12.9746C5.57161 13.0247 5.5752 13.082 5.5752 13.1465L5.4248 13.7695C5.4248 14.0345 5.46061 14.2995 5.53223 14.5645C5.60384 14.8223 5.64681 15.0872 5.66113 15.3594C5.66829 15.5599 5.67188 15.7676 5.67188 15.9824C5.67188 16.1901 5.67546 16.4014 5.68262 16.6162C5.68978 16.8239 5.7041 17.0316 5.72559 17.2393C5.74707 17.4398 5.79004 17.6367 5.85449 17.8301C5.86165 17.8802 5.94043 17.959 6.09082 18.0664C6.24837 18.1738 6.42383 18.2848 6.61719 18.3994C6.81055 18.5068 6.99316 18.6035 7.16504 18.6895C7.34408 18.7682 7.45866 18.8076 7.50879 18.8076H7.8418C7.92057 18.8076 7.97786 18.8112 8.01367 18.8184C8.04948 18.8184 8.09245 18.8327 8.14258 18.8613C8.14258 18.8685 8.1569 18.8864 8.18555 18.915C8.22135 18.9437 8.26074 18.9795 8.30371 19.0225C8.34668 19.0583 8.38965 19.0941 8.43262 19.1299C8.48275 19.1657 8.52572 19.1943 8.56152 19.2158C8.57585 19.2516 8.58659 19.2803 8.59375 19.3018C8.60807 19.3232 8.61523 19.3519 8.61523 19.3877V19.4199C8.55078 19.5632 8.45052 19.6742 8.31445 19.7529C8.18555 19.8317 8.04232 19.889 7.88477 19.9248C7.72721 19.9606 7.56608 19.9821 7.40137 19.9893C7.23665 19.9964 7.08626 20 6.9502 20L6.13379 19.8496C6.05501 19.8496 5.97624 19.8675 5.89746 19.9033C5.82585 19.932 5.74707 19.9463 5.66113 19.9463L4.76953 19.6992H4.64062C4.58333 19.6992 4.54753 19.7064 4.5332 19.7207C4.22526 19.7565 3.91732 19.8138 3.60938 19.8926C3.30143 19.9642 2.97201 20 2.62109 20C2.47786 20 2.29883 19.9964 2.08398 19.9893C1.8763 19.9821 1.6722 19.957 1.47168 19.9141C1.27116 19.8711 1.09928 19.8066 0.956055 19.7207C0.812826 19.6276 0.741211 19.4987 0.741211 19.334Z" fill="#1C1C1C"/>
</svg>
