<svg width="28" height="28" viewBox="0 0 28 28" fill="none" xmlns="http://www.w3.org/2000/svg">
<path fill-rule="evenodd" clip-rule="evenodd" d="M16.9128 4.52588C16.018 4.13377 15.0314 3.91724 13.9988 3.91724C10.2957 3.91724 7.18477 6.70163 6.77583 10.3821L6.48206 13.026L6.47483 13.0905C6.33649 14.2962 5.94406 15.4587 5.32344 16.5016L5.29007 16.5573L4.6157 17.6813L4.59568 17.7146C4.30677 18.1961 4.06102 18.6057 3.90008 18.9474C3.7373 19.293 3.5971 19.6955 3.66607 20.1326C3.73828 20.5903 3.97382 21.0063 4.3291 21.3037C4.66843 21.5877 5.08571 21.6746 5.46584 21.7128C5.84164 21.7506 6.31925 21.7506 6.88072 21.7506H6.9197H21.0778H21.1168C21.6783 21.7506 22.1559 21.7506 22.5317 21.7128C22.9118 21.6746 23.3291 21.5877 23.6684 21.3037C24.0237 21.0063 24.2592 20.5903 24.3314 20.1326C24.4004 19.6955 24.2602 19.293 24.0974 18.9474C23.9365 18.6057 23.6908 18.1961 23.4019 17.7147L23.3818 17.6813L22.7075 16.5573L22.6741 16.5016C22.0535 15.4587 21.661 14.2962 21.5227 13.0905L21.5155 13.026L21.4616 12.5412C20.9995 12.7134 20.5027 12.8145 19.9846 12.8312L20.0246 13.1916L20.0325 13.2615C20.195 14.6779 20.656 16.0436 21.3851 17.2687L21.4212 17.3291L22.0956 18.453C22.41 18.977 22.6156 19.3214 22.7404 19.5865C22.846 19.8108 22.8495 19.891 22.8495 19.9008C22.8335 19.9989 22.783 20.088 22.7072 20.1521C22.6988 20.1572 22.6281 20.1955 22.3815 20.2203C22.09 20.2497 21.6889 20.2506 21.0778 20.2506H6.9197C6.3086 20.2506 5.90751 20.2497 5.61599 20.2203C5.36936 20.1955 5.29872 20.1572 5.29035 20.1521C5.21448 20.088 5.16401 19.9989 5.14806 19.9008C5.14799 19.891 5.15149 19.8108 5.25712 19.5865C5.38195 19.3214 5.58753 18.977 5.90194 18.453L6.57631 17.3291L6.61245 17.2687C7.34152 16.0436 7.80253 14.6779 7.96505 13.2615L7.97289 13.1916L8.26666 10.5477C8.59119 7.62693 11.06 5.41724 13.9988 5.41724C14.6465 5.41724 15.2715 5.52459 15.8556 5.72326C16.1373 5.26587 16.4957 4.86077 16.9128 4.52588ZM19.0562 5.96569C18.563 6.13955 18.1457 6.4745 17.8676 6.90737C18.8688 7.81295 19.5539 9.06879 19.7251 10.4979C19.7606 10.4995 19.7962 10.5003 19.8321 10.5003C20.3344 10.5003 20.7997 10.3415 21.1805 10.0714C20.9317 8.4606 20.1621 7.03692 19.0562 5.96569ZM22.8495 19.9008C22.8495 19.9015 22.8494 19.9019 22.8494 19.9019C22.8494 19.9019 22.8495 19.9008 22.8498 19.8988C22.8497 19.8995 22.8496 19.9002 22.8495 19.9008Z" fill="#565BBD"/>
<path d="M10.6193 21.4735C10.8187 22.3418 11.2581 23.109 11.8693 23.6562C12.4806 24.2034 13.2295 24.5 14 24.5C14.7705 24.5 15.5194 24.2034 16.1307 23.6562C16.7419 23.109 17.1813 22.3418 17.3807 21.4735" stroke="#565BBD" stroke-width="1.5" stroke-linecap="round"/>
<circle cx="19.8333" cy="8.16695" r="2.33333" fill="#E01507"/>
</svg>
