<svg width="13" height="16" viewBox="0 0 13 16" fill="none" xmlns="http://www.w3.org/2000/svg">
<path d="M0.741211 15.334C0.741211 15.291 0.755534 15.248 0.78418 15.2051C0.812826 15.1549 0.845052 15.1084 0.880859 15.0654C0.923828 15.0225 0.963216 14.9831 0.999023 14.9473C1.04199 14.9115 1.07422 14.8828 1.0957 14.8613H1.375C1.53255 14.8613 1.68652 14.8577 1.83691 14.8506C1.99447 14.8363 2.14128 14.8112 2.27734 14.7754C2.42057 14.7396 2.55306 14.6787 2.6748 14.5928C2.80371 14.5068 2.92188 14.3887 3.0293 14.2383L3.3623 13.8301C3.39811 13.7943 3.4196 13.762 3.42676 13.7334C3.43392 13.6976 3.4375 13.6403 3.4375 13.5615L3.3623 12.1543C3.3623 11.9251 3.39811 11.7067 3.46973 11.499C3.5485 11.2913 3.58789 11.0872 3.58789 10.8867C3.58789 10.6647 3.5485 10.4355 3.46973 10.1992C3.39811 9.96289 3.3623 9.72298 3.3623 9.47949C3.3623 9.4222 3.36947 9.37565 3.38379 9.33984C3.40527 9.29688 3.42318 9.25749 3.4375 9.22168C3.45898 9.17871 3.47689 9.13574 3.49121 9.09277C3.5127 9.0498 3.52344 8.99967 3.52344 8.94238L3.41602 8.17969L3.52344 7.15918V6.74023L3.3623 6.4502C3.34798 6.27116 3.33008 6.09928 3.30859 5.93457C3.29427 5.79134 3.27995 5.64811 3.26562 5.50488C3.2513 5.36165 3.24056 5.24349 3.2334 5.15039L3.38379 4.64551C3.38379 4.54525 3.3623 4.38053 3.31934 4.15137C3.27637 3.9222 3.21908 3.68587 3.14746 3.44238C3.07585 3.19889 2.99707 2.97689 2.91113 2.77637C2.83236 2.57585 2.75358 2.4541 2.6748 2.41113C2.55306 2.37533 2.38477 2.3431 2.16992 2.31445C1.95508 2.27865 1.74023 2.22852 1.52539 2.16406C1.31771 2.09245 1.13509 1.99935 0.977539 1.88477C0.819987 1.77018 0.741211 1.61263 0.741211 1.41211C0.741211 1.34766 0.759115 1.31543 0.794922 1.31543C0.909505 1.31543 1.00977 1.30469 1.0957 1.2832C1.18164 1.26172 1.26042 1.23665 1.33203 1.20801C1.41081 1.17936 1.486 1.1543 1.55762 1.13281C1.63639 1.11133 1.72233 1.10059 1.81543 1.10059L2.6748 1.20801L4.4043 1.03613L4.75879 1.1543L5.31738 1.03613C5.52507 1.00749 5.72917 0.989583 5.92969 0.982422C6.13021 0.968099 6.33431 0.960938 6.54199 0.960938C6.73535 0.960938 6.92871 0.968099 7.12207 0.982422C7.31543 0.989583 7.50521 1.00749 7.69141 1.03613C7.8418 1.11491 7.99219 1.16146 8.14258 1.17578C8.30013 1.18294 8.45768 1.18652 8.61523 1.18652C8.78711 1.18652 8.9554 1.19368 9.12012 1.20801C9.28483 1.22233 9.44596 1.2474 9.60352 1.2832C9.73242 1.30469 9.90072 1.36556 10.1084 1.46582C10.3161 1.55892 10.5273 1.6735 10.7422 1.80957C10.9642 1.93848 11.1647 2.08171 11.3438 2.23926C11.5299 2.39681 11.6624 2.5472 11.7412 2.69043C11.8057 2.85514 11.863 3.03418 11.9131 3.22754C11.9704 3.4209 12.0205 3.61784 12.0635 3.81836C12.1064 4.01172 12.1387 4.20866 12.1602 4.40918C12.1888 4.60254 12.2031 4.78516 12.2031 4.95703C12.2031 5.04297 12.1995 5.15755 12.1924 5.30078C12.1924 5.44401 12.1816 5.59082 12.1602 5.74121C12.1458 5.8916 12.1243 6.03125 12.0957 6.16016C12.0671 6.28906 12.0312 6.38574 11.9883 6.4502L11.666 6.8584L11.5908 7.2666C11.555 7.35254 11.4727 7.4707 11.3438 7.62109C11.222 7.76432 11.0824 7.91471 10.9248 8.07227C10.7744 8.22266 10.624 8.3623 10.4736 8.49121C10.3304 8.62012 10.2158 8.70247 10.1299 8.73828C10.0654 8.77409 9.98665 8.81706 9.89355 8.86719C9.80046 8.91016 9.70378 8.95671 9.60352 9.00684C9.50326 9.05697 9.40658 9.10352 9.31348 9.14648C9.22754 9.18229 9.15592 9.20736 9.09863 9.22168L8.34668 9.27539L7.87402 9.42578C7.78809 9.42578 7.68424 9.41504 7.5625 9.39355C7.44076 9.36491 7.32259 9.32552 7.20801 9.27539C7.10059 9.22526 7.00391 9.17155 6.91797 9.11426C6.83919 9.0498 6.7998 8.97819 6.7998 8.89941C6.7998 8.78483 6.875 8.69889 7.02539 8.6416L8.27148 8.38379C8.27865 8.34798 8.30371 8.31934 8.34668 8.29785C8.39681 8.26921 8.43978 8.24772 8.47559 8.2334C8.72624 8.10449 8.95898 7.9362 9.17383 7.72852C9.38867 7.51367 9.57487 7.27734 9.73242 7.01953C9.88997 6.76172 10.0117 6.48958 10.0977 6.20312C10.1908 5.90951 10.2373 5.6123 10.2373 5.31152C10.223 5.25423 10.2015 5.2041 10.1729 5.16113C10.1514 5.111 10.137 5.06803 10.1299 5.03223C10.1299 5.02507 10.1263 5.0179 10.1191 5.01074C10.112 4.99642 10.1084 4.97493 10.1084 4.94629C10.0798 4.74577 10.0475 4.51302 10.0117 4.24805C9.97591 3.97591 9.9222 3.74316 9.85059 3.5498C9.82194 3.47819 9.74316 3.38151 9.61426 3.25977C9.49251 3.13086 9.34928 2.99479 9.18457 2.85156C9.02702 2.70833 8.8623 2.56868 8.69043 2.43262C8.52572 2.28939 8.38607 2.16764 8.27148 2.06738L7.31543 1.8418H6.4668C6.40234 1.8776 6.30924 1.90983 6.1875 1.93848C6.07292 1.96712 5.95833 2.00293 5.84375 2.0459C5.73633 2.08887 5.63965 2.14974 5.55371 2.22852C5.46777 2.30013 5.4248 2.40039 5.4248 2.5293V3.77539C5.47493 3.83984 5.50358 3.88997 5.51074 3.92578C5.5179 3.96159 5.52148 4.02246 5.52148 4.1084L5.4248 4.5166C5.4248 4.53092 5.43913 4.57747 5.46777 4.65625C5.50358 4.72786 5.52148 4.78158 5.52148 4.81738V5L5.32812 5.55859L5.5752 6.80469C5.5752 6.86914 5.57161 6.92285 5.56445 6.96582C5.56445 7.00163 5.55013 7.05892 5.52148 7.1377V8.79199C5.55013 8.85645 5.56445 8.91732 5.56445 8.97461C5.57161 9.02474 5.5752 9.08203 5.5752 9.14648L5.4248 9.76953C5.4248 10.0345 5.46061 10.2995 5.53223 10.5645C5.60384 10.8223 5.64681 11.0872 5.66113 11.3594C5.66829 11.5599 5.67188 11.7676 5.67188 11.9824C5.67188 12.1901 5.67546 12.4014 5.68262 12.6162C5.68978 12.8239 5.7041 13.0316 5.72559 13.2393C5.74707 13.4398 5.79004 13.6367 5.85449 13.8301C5.86165 13.8802 5.94043 13.959 6.09082 14.0664C6.24837 14.1738 6.42383 14.2848 6.61719 14.3994C6.81055 14.5068 6.99316 14.6035 7.16504 14.6895C7.34408 14.7682 7.45866 14.8076 7.50879 14.8076H7.8418C7.92057 14.8076 7.97786 14.8112 8.01367 14.8184C8.04948 14.8184 8.09245 14.8327 8.14258 14.8613C8.14258 14.8685 8.1569 14.8864 8.18555 14.915C8.22135 14.9437 8.26074 14.9795 8.30371 15.0225C8.34668 15.0583 8.38965 15.0941 8.43262 15.1299C8.48275 15.1657 8.52572 15.1943 8.56152 15.2158C8.57585 15.2516 8.58659 15.2803 8.59375 15.3018C8.60807 15.3232 8.61523 15.3519 8.61523 15.3877V15.4199C8.55078 15.5632 8.45052 15.6742 8.31445 15.7529C8.18555 15.8317 8.04232 15.889 7.88477 15.9248C7.72721 15.9606 7.56608 15.9821 7.40137 15.9893C7.23665 15.9964 7.08626 16 6.9502 16L6.13379 15.8496C6.05501 15.8496 5.97624 15.8675 5.89746 15.9033C5.82585 15.932 5.74707 15.9463 5.66113 15.9463L4.76953 15.6992H4.64062C4.58333 15.6992 4.54753 15.7064 4.5332 15.7207C4.22526 15.7565 3.91732 15.8138 3.60938 15.8926C3.30143 15.9642 2.97201 16 2.62109 16C2.47786 16 2.29883 15.9964 2.08398 15.9893C1.8763 15.9821 1.6722 15.957 1.47168 15.9141C1.27116 15.8711 1.09928 15.8066 0.956055 15.7207C0.812826 15.6276 0.741211 15.4987 0.741211 15.334Z" fill="#1C1C1C"/>
</svg>
