<svg width="32" height="32" viewBox="0 0 32 32" fill="none" xmlns="http://www.w3.org/2000/svg">
<circle cx="16" cy="16" r="16" fill="#F6F6F9"/>
<path d="M16.2945 6C13.4374 6 11.1018 8.33556 11.1018 11.1927C11.1018 14.0498 13.4374 16.3854 16.2945 16.3854C19.1516 16.3854 21.4872 14.0498 21.4872 11.1927C21.4872 8.33556 19.1516 6 16.2945 6Z" fill="#CFCFCF"/>
<path d="M25.208 20.5351C25.072 20.195 24.8906 19.8775 24.6865 19.5827C23.6434 18.0408 22.0335 17.0204 20.2195 16.771C19.9927 16.7483 19.7433 16.7936 19.5619 16.9297C18.6095 17.6326 17.4757 17.9954 16.2966 17.9954C15.1174 17.9954 13.9837 17.6326 13.0313 16.9297C12.8499 16.7936 12.6005 16.7256 12.3737 16.771C10.5597 17.0204 8.92705 18.0408 7.90666 19.5827C7.70259 19.8775 7.52116 20.2177 7.38514 20.5351C7.31713 20.6712 6.94028 21.4166 7.00829 21.5527C7.18972 21.8701 7.20372 21.7977 7.4078 22.0698C7.72524 22.5006 8.41313 22.9801 8.79863 23.3429C9.11607 23.6603 9.69374 24.0142 10.0294 24.238C11.8207 25.5759 14.0517 25.9999 16.2739 25.9999C18.4961 25.9999 20.7696 25.5758 22.561 24.238C22.9238 23.9659 23.3624 23.7722 23.6799 23.4548C24.0427 23.092 24.5931 22.7667 24.9106 22.3359C25.1374 22.0411 25.4005 21.8701 25.5819 21.5527C25.6952 21.4166 25.276 20.6711 25.208 20.5351Z" fill="#CFCFCF"/>
</svg>
