<svg width="24" height="24" viewBox="0 0 24 24" fill="none" xmlns="http://www.w3.org/2000/svg">
<path d="M4.57031 8.97266V17.6512C4.57031 18.7456 4.57031 19.2927 4.91028 19.6327C5.25024 19.9727 5.79741 19.9727 6.89175 19.9727H17.3382C18.4325 19.9727 18.9797 19.9727 19.3197 19.6327C19.6596 19.2927 19.6596 18.7456 19.6596 17.6512V8.97266" stroke="#696969" stroke-width="1.5"/>
<path d="M21.9822 10.7143L12.7854 4.22249C12.3842 3.93923 11.848 3.93923 11.4467 4.22249L2.25 10.7143" stroke="#696969" stroke-width="1.5" stroke-linecap="round"/>
<path d="M14 19.4194V15.3926C14 14.3473 13.1527 13.5 12.1074 13.5V13.5C11.0622 13.5 10.2148 14.3473 10.2148 15.3926V19.4194" stroke="#696969" stroke-width="1.5" stroke-linejoin="round"/>
</svg>
