<svg width="28" height="28" viewBox="0 0 28 28" fill="none" xmlns="http://www.w3.org/2000/svg">
<circle cx="14" cy="14" r="10.5" stroke="#565BBD" stroke-width="1.5"/>
<path d="M13.4308 16.5284V16.4613C13.4382 15.7491 13.5128 15.1824 13.6545 14.761C13.7962 14.3397 13.9975 13.9985 14.2585 13.7375C14.5195 13.4765 14.8327 13.236 15.1982 13.016C15.4181 12.8817 15.6158 12.7233 15.791 12.5406C15.9663 12.3541 16.1042 12.1397 16.2049 11.8974C16.3093 11.655 16.3615 11.3865 16.3615 11.092C16.3615 10.7266 16.2757 10.4096 16.1042 10.1412C15.9327 9.87269 15.7034 9.66575 15.4163 9.52033C15.1292 9.37491 14.8104 9.3022 14.4599 9.3022C14.1541 9.3022 13.8596 9.36559 13.5762 9.49236C13.2928 9.61914 13.056 9.81863 12.8659 10.0908C12.6757 10.363 12.5657 10.7191 12.5359 11.1591H11.1264C11.1562 10.5252 11.3203 9.98269 11.6186 9.53152C11.9206 9.08034 12.3177 8.73544 12.8099 8.4968C13.3058 8.25817 13.8558 8.13885 14.4599 8.13885C15.1161 8.13885 15.6866 8.26935 16.1713 8.53036C16.6598 8.79137 17.0364 9.14933 17.3011 9.60423C17.5696 10.0591 17.7038 10.5774 17.7038 11.1591C17.7038 11.5692 17.6404 11.9403 17.5137 12.2721C17.3906 12.604 17.2116 12.9004 16.9767 13.1614C16.7456 13.4224 16.4659 13.6536 16.1378 13.8549C15.8097 14.06 15.5468 14.2763 15.3492 14.5037C15.1515 14.7275 15.008 14.9941 14.9185 15.3035C14.829 15.613 14.7805 15.9989 14.7731 16.4613V16.5284H13.4308ZM14.1467 19.8395C13.8707 19.8395 13.634 19.7407 13.4363 19.5431C13.2387 19.3454 13.1399 19.1087 13.1399 18.8327C13.1399 18.5568 13.2387 18.32 13.4363 18.1224C13.634 17.9248 13.8707 17.826 14.1467 17.826C14.4226 17.826 14.6594 17.9248 14.857 18.1224C15.0546 18.32 15.1534 18.5568 15.1534 18.8327C15.1534 19.0154 15.1068 19.1832 15.0136 19.3361C14.9241 19.489 14.8029 19.612 14.65 19.7053C14.5009 19.7947 14.3331 19.8395 14.1467 19.8395Z" fill="#565BBD"/>
</svg>
